<svg width="1937" height="1152" viewBox="0 0 1937 1152" fill="none" xmlns="http://www.w3.org/2000/svg">
<mask id="mask0_1041_3" style="mask-type:luminance" maskUnits="userSpaceOnUse" x="0" y="0" width="1937" height="1152" opacity="0.15">
<path d="M1937 0H0V1152H1937V0Z" fill="white"/>
</mask>
<g mask="url(#mask0_1041_3)">
<path d="M2279.33 899.925C2274.51 899.724 2269.69 899.526 2264.86 899.329C2135.42 894.02 2001.58 888.53 1885.39 827.805C1834.7 801.312 1790.76 764.108 1748.28 728.13C1707.02 693.195 1664.37 657.071 1615.59 630.822C1476.58 556.016 1309.68 570.2 1150.03 596.67C1063.57 611.006 976.571 631.445 892.438 651.211C778.931 677.878 661.561 705.452 543.865 718.43C498.978 723.379 432.852 728.144 377.076 712.449C349.305 704.635 326.307 692.296 308.723 675.775C288.808 657.065 275.189 632.402 268.244 602.472C251.893 532 262.01 457.562 271.793 385.575C276.729 349.257 281.833 311.701 283.311 275.644C285.914 212.149 276.018 169.707 253.057 145.892C238.648 130.948 218.851 123.312 194.216 123.197C193.984 123.195 193.752 123.195 193.52 123.195C153.273 123.195 112.516 139.438 74.2038 156.089C28.1315 176.113 -16.8127 200.422 -60.277 223.93C-64.0627 225.978 -67.8476 228.025 -71.6329 230.069L-71.8057 229.754C-68.0208 227.709 -64.2363 225.663 -60.4502 223.615C-16.9793 200.103 27.9723 175.791 74.0586 155.76C112.404 139.095 153.205 122.836 193.519 122.836C193.754 122.836 193.983 122.836 194.218 122.837C218.955 122.953 238.84 130.627 253.319 145.644C266.443 159.256 275.465 179.291 280.136 205.193C283.659 224.729 284.816 247.778 283.673 275.659C282.194 311.733 277.089 349.296 272.152 385.623C262.373 457.578 252.261 531.983 268.597 602.391C298.21 730.017 439.856 729.537 543.825 718.072C661.5 705.098 778.859 677.526 892.355 650.862C976.493 631.094 1063.5 610.655 1149.98 596.316C1195.46 588.775 1232.75 583.666 1267.33 580.238C1311.02 575.908 1350.19 574.294 1387.06 575.305C1429.73 576.475 1468.21 581.094 1504.69 589.425C1544.72 598.565 1582.09 612.387 1615.76 630.507C1664.57 656.774 1707.24 692.91 1748.51 727.857C1790.99 763.823 1834.9 801.013 1885.56 827.488C2001.68 888.174 2135.48 893.663 2264.87 898.969C2269.7 899.168 2274.53 899.365 2279.34 899.566L2279.33 899.925Z" fill="#ffff"/>
<path d="M2265.72 905.738C2260.92 905.459 2256.11 905.182 2251.29 904.904C2124.55 897.601 1993.49 890.05 1879.33 829.783C1829.59 803.526 1786.26 767.06 1744.35 731.795C1703.49 697.41 1661.24 661.854 1613.11 635.826C1475.54 561.376 1310.88 572.574 1153.43 595.766C1064.76 608.859 975.425 628.41 889.032 647.318C798.554 667.119 704.995 687.596 611.702 700.788C591.67 703.621 571.943 706.076 553.068 708.085C531.328 710.395 504.553 712.669 476.435 712.67C447.032 712.67 416.16 710.184 387.996 702.651C360.471 695.288 337.539 683.618 319.837 667.961C299.804 650.243 285.797 626.846 278.203 598.419C260.309 531.429 267.529 460.955 274.511 392.8C278.018 358.579 281.642 323.193 281.88 289.269C282.162 253.822 278.943 227.298 271.751 205.795C261.874 176.266 244.246 157.536 219.357 150.126C210.673 147.571 200.947 146.33 190.445 146.436C150.633 146.911 110.051 163.241 71.8971 179.925C52.4814 188.414 31.5025 198.399 7.76263 210.449C-8.68444 218.795 -25.2493 227.479 -41.2694 235.878C-51.6192 241.304 -62.3211 246.914 -72.8603 252.364L-73.0347 252.032C-62.4966 246.582 -51.7951 240.972 -41.4457 235.547C-25.4252 227.148 -8.85838 218.463 7.59062 210.115C31.3371 198.062 52.3222 188.075 71.7444 179.582C89.0457 172.017 109.21 163.406 129.587 156.971C152.134 149.85 172.04 146.281 190.441 146.062C200.977 145.949 210.745 147.201 219.465 149.767C232.742 153.72 244.045 160.892 253.063 171.086C261.04 180.105 267.449 191.743 272.11 205.678C279.316 227.22 282.54 253.782 282.258 289.272C282.02 323.213 278.394 358.608 274.887 392.838C267.909 460.959 260.693 531.399 278.569 598.323C292.822 651.683 329.672 686.662 388.095 702.289C443.131 717.01 508.584 712.434 553.029 707.712C571.898 705.704 591.621 703.249 611.649 700.417C704.928 687.226 798.479 666.752 888.951 646.952C975.349 628.042 1064.69 608.49 1153.38 595.395C1198.31 588.776 1235.17 584.391 1269.35 581.597C1312.47 578.073 1351.12 577.11 1387.52 578.655C1475.68 582.394 1549.53 600.987 1613.3 635.496C1661.46 661.542 1703.72 697.112 1744.6 731.509C1786.49 766.761 1829.8 803.213 1879.51 829.452C1993.6 889.68 2124.61 897.229 2251.31 904.53C2256.13 904.807 2260.94 905.084 2265.74 905.364L2265.72 905.738Z" fill="#ffff" />
<path d="M2252.11 911.551C2247.34 911.191 2242.55 910.833 2237.76 910.474C2113.7 901.183 1985.41 891.576 1873.26 831.761C1824.48 805.744 1781.76 770.021 1740.45 735.474C1699.97 701.633 1658.12 666.639 1610.64 640.829C1527.67 595.671 1434.95 581.076 1340.06 581.076C1279.21 581.076 1217.48 587.075 1156.83 594.861C1065.62 606.635 973.593 625.286 884.601 643.324C798.4 660.795 709.265 678.861 620.366 690.822C600.482 693.499 580.936 695.826 562.272 697.739C530.426 700.994 504.292 702.398 480.017 702.153C448.936 701.842 422.407 698.797 398.913 692.845C371.633 685.933 348.767 674.929 330.949 660.139C310.798 643.414 296.403 621.285 288.163 594.368C268.725 530.876 273.037 464.403 277.206 400.118C279.291 367.965 281.448 334.717 280.45 302.896C279.828 281.707 277.86 250.518 267.991 224.41C257.503 196.665 239.744 179.269 215.206 172.705C206.696 170.429 197.098 169.41 186.674 169.676C147.502 170.813 108.938 186.448 69.5897 203.762C50.363 212.22 30.1752 221.824 6.05801 233.986C-4.74154 239.43 -15.6472 245.016 -26.1934 250.418C-41.8719 258.449 -58.0834 266.753 -74.0877 274.66L-74.2632 274.311C-58.2616 266.404 -42.0509 258.101 -26.374 250.072C-15.827 244.669 -4.92091 239.083 5.88019 233.638C30.0036 221.473 50.1968 211.867 69.4305 203.406C108.816 186.076 147.419 170.425 186.664 169.286C197.124 169.02 206.762 170.043 215.309 172.329C228.42 175.835 239.683 182.424 248.785 191.911C256.824 200.29 263.41 211.178 268.36 224.274C278.25 250.436 280.221 281.669 280.844 302.885C281.842 334.724 279.685 367.981 277.599 400.144C273.432 464.394 269.123 530.831 288.54 594.256C304.004 644.769 341.172 677.812 399.012 692.468C453.371 706.241 518.199 701.852 562.233 697.352C580.892 695.44 600.434 693.113 620.314 690.436C709.201 678.476 798.329 660.412 884.522 642.942C973.523 624.903 1065.55 606.25 1156.78 594.475C1312.07 574.538 1474.56 566.314 1610.83 640.488C1658.35 666.317 1700.21 701.322 1740.7 735.176C1782 769.71 1824.71 805.42 1873.45 831.419C1985.52 891.194 2113.77 900.798 2237.79 910.086C2242.58 910.444 2247.37 910.802 2252.14 911.163L2252.11 911.551Z" fill="#ffff"/>
<path d="M2238.5 917.365C2233.77 916.922 2229.02 916.481 2224.27 916.04C2102.87 904.766 1977.33 893.107 1867.2 833.74C1819.39 807.966 1777.28 772.991 1736.56 739.167C1696.47 705.866 1655.01 671.431 1608.17 645.834C1521.3 598.273 1423.89 583.536 1324.7 583.536C1269.93 583.536 1214.64 588.024 1160.22 593.957C1066.08 604.319 970.955 622.056 878.958 639.209C797.426 654.41 713.12 670.129 629.029 680.856C609.281 683.379 589.917 685.578 571.474 687.394C539.832 690.497 513.967 691.856 490.071 691.665C459.361 691.422 433.113 688.597 409.826 683.029C382.791 676.565 359.989 666.229 342.055 652.307C321.788 636.575 307.007 615.719 298.122 590.318C277.142 530.345 278.536 467.917 279.884 407.545C280.557 377.425 281.253 346.28 279.02 316.525C275.449 266.767 264.498 208.02 211.056 195.284C202.579 193.264 193.107 192.468 182.904 192.916C144.662 194.599 106.391 210.282 67.2822 227.599C48.5627 235.885 28.5667 245.393 4.35299 257.523C-1.79737 260.602 -8.02328 263.738 -14.0443 266.77C-34.081 276.861 -54.8003 287.295 -75.3158 296.956L-75.4917 296.59C-54.9812 286.931 -34.2646 276.498 -14.2294 266.408C-8.20846 263.376 -1.98255 260.241 4.1682 257.161C28.3877 245.028 48.3895 235.517 67.1153 227.229C106.261 209.895 144.572 194.196 182.886 192.511C193.127 192.06 202.638 192.86 211.152 194.889C264.852 207.687 275.848 266.6 279.428 316.495C281.662 346.269 280.966 377.425 280.293 407.554C278.946 467.89 277.553 530.281 298.508 590.185C315.413 638.511 351.857 668.751 409.922 682.634C463.006 695.327 524.121 691.63 571.434 686.991C589.872 685.174 609.232 682.975 628.977 680.454C713.055 669.728 797.357 654.01 878.882 638.81C970.886 621.656 1066.02 603.918 1160.18 593.554C1313.21 576.865 1473.43 571.605 1608.36 645.478C1655.25 671.094 1696.72 705.543 1736.82 738.856C1777.53 772.668 1819.62 807.63 1867.39 833.384C1977.46 892.711 2102.95 904.366 2224.31 915.637C2229.06 916.078 2233.8 916.519 2238.54 916.962L2238.5 917.365Z" fill="#ffff"/>
<path d="M2224.89 923.178C2220.21 922.653 2215.51 922.129 2210.81 921.604C2092.06 908.349 1969.27 894.643 1861.13 835.718C1814.3 810.195 1772.82 775.972 1732.7 742.876C1692.98 710.108 1651.91 676.226 1605.69 650.837C1472.15 577.285 1314.3 579.598 1163.62 593.053C1066.09 601.891 967.355 618.696 871.873 634.949C795.477 647.952 716.481 661.399 637.694 670.89C618.077 673.256 598.894 675.329 580.678 677.049C533.776 681.451 473.211 684.992 420.732 673.202C393.941 667.184 371.204 657.514 353.154 644.462C332.774 629.724 317.609 610.145 308.082 586.269C285.475 529.611 283.941 471.049 282.456 414.414C281.725 386.517 280.969 357.67 277.59 330.154C271.511 280.647 258.359 228.591 206.907 217.862C198.524 216.114 189.179 215.54 179.133 216.155C141.622 218.453 105.24 233.492 64.9745 251.436C46.5754 259.63 27.3533 268.766 2.64807 281.06L-4.15583 284.445C-27.802 296.212 -52.2531 308.38 -76.5446 319.252L-76.7197 318.867C-52.4359 307.999 -27.9887 295.833 -4.34644 284.068L2.45747 280.683C27.1689 268.387 46.3956 259.248 64.8006 251.051C83.4155 242.755 101.695 234.775 120.665 228.319C142.376 220.929 161.493 216.813 179.107 215.735C189.192 215.116 198.574 215.694 206.994 217.45C219.755 220.111 230.921 225.558 240.182 233.639C248.327 240.748 255.262 250.134 260.791 261.537C271.176 282.951 275.324 308.215 278.012 330.103C281.394 357.64 282.15 386.497 282.881 414.404C284.365 471.001 285.898 529.526 308.478 586.115C326.598 631.527 363.348 659.88 420.826 672.792C473.246 684.568 533.768 681.028 580.637 676.63C598.849 674.91 618.029 672.838 637.642 670.471C716.418 660.982 795.41 647.537 871.801 634.534C967.291 618.28 1066.03 601.473 1163.58 592.633C1314.33 579.173 1472.25 576.863 1605.9 650.468C1652.15 675.876 1693.24 709.772 1732.97 742.552C1773.07 775.635 1814.54 809.845 1861.34 835.349C1969.4 894.234 2092.15 907.935 2210.86 921.185C2215.56 921.709 2220.26 922.234 2224.94 922.759L2224.89 923.178Z" fill="#ffff"/>
<path d="M2211.28 928.992C2206.67 928.383 2202.04 927.776 2197.41 927.169C2081.29 911.938 1961.23 896.188 1855.07 837.697C1809.22 812.43 1768.37 778.966 1728.87 746.604C1689.51 714.365 1648.82 681.028 1603.22 655.841C1470.89 582.52 1315.37 581.899 1167.01 592.149C1065.53 599.323 962.594 615.181 863.046 630.517C792.349 641.409 719.246 652.671 646.358 660.924C626.861 663.137 607.86 665.081 589.881 666.706C543.421 670.867 483.448 674.248 431.63 663.367C405.079 657.792 382.408 648.788 364.245 636.607C343.751 622.863 328.207 604.566 318.044 582.222C293.875 529.085 289.403 474.622 285.078 421.953C282.854 394.865 280.753 369.28 276.162 343.787C267.438 295.348 252.508 249.301 202.758 240.442C194.471 238.966 185.254 238.614 175.364 239.396C135.66 242.534 95.1874 260.687 62.6683 275.273C39.9744 285.445 17.7605 296.288 0.943459 304.597C-23.1005 316.468 -50.3526 329.921 -77.7731 341.549L-77.9463 341.147C-50.5377 329.524 -23.2915 316.074 0.74704 304.206C17.5676 295.895 39.7857 285.049 62.4866 274.875C95.0375 260.275 135.549 242.105 175.329 238.96C185.257 238.175 194.512 238.529 202.836 240.011C215.42 242.252 226.537 247.129 235.878 254.508C244.079 260.985 251.189 269.619 257.013 280.172C267.633 299.419 272.702 322.085 276.596 343.71C281.191 369.224 283.293 394.82 285.518 421.918C289.84 474.55 294.308 528.974 318.446 582.043C337.771 624.53 374.824 650.992 431.722 662.939C483.483 673.808 543.413 670.428 589.841 666.27C607.817 664.647 626.815 662.702 646.308 660.49C719.187 652.238 792.286 640.977 862.978 630.086C962.536 614.749 1065.48 598.889 1166.98 591.713C1228.91 587.434 1310.15 583.608 1389.36 592.057C1472.4 600.917 1542.43 621.655 1603.44 655.459C1649.07 680.665 1689.78 714.015 1729.15 746.267C1768.64 778.617 1809.47 812.068 1855.28 837.315C1961.37 895.765 2081.39 911.51 2197.47 926.736C2202.1 927.343 2206.73 927.95 2211.34 928.558L2211.28 928.992Z" fill="#ffff"/>
<path d="M2197.67 934.804C2193.15 934.115 2188.61 933.428 2184.07 932.739C2070.56 915.533 1953.2 897.742 1849.01 839.675C1804.15 814.674 1763.95 781.976 1725.07 750.355C1686.07 718.635 1645.74 685.837 1600.75 660.845C1469.57 587.713 1316.39 584.174 1170.41 591.244C1064.3 596.58 956.42 611.476 852.094 625.881C787.785 634.761 721.288 643.943 655.021 650.958C635.337 653.047 617.039 654.814 599.083 656.36C553.064 660.282 493.68 663.503 442.514 653.519C416.203 648.385 393.596 640.048 375.321 628.74C354.716 615.991 338.797 598.979 328.006 578.176C302.291 528.605 294.887 478.314 287.727 429.679C284.038 404.621 280.553 380.954 274.733 357.422C264.4 315.642 249.144 270.447 198.609 263.02C190.417 261.816 181.328 261.686 171.593 262.635C132.773 266.417 92.6214 284.544 60.3595 299.109C38.8871 308.796 17.4124 319.217 -0.762123 328.134C-25.4841 340.251 -51.8896 352.989 -79.0026 363.845L-79.1738 363.425C-52.0756 352.575 -25.6789 339.841 -0.964737 327.728C17.2132 318.81 38.6922 308.387 60.1716 298.697C92.4645 284.118 132.655 265.974 171.549 262.185C181.322 261.232 190.449 261.363 198.676 262.572C222.183 266.027 240.027 277.88 253.229 298.809C264.582 316.809 270.512 338.447 275.178 357.314C281.004 380.868 284.489 404.545 288.18 429.614C295.335 478.212 302.733 528.465 328.413 577.969C348.928 617.518 386.28 642.085 442.603 653.076C493.713 663.05 553.056 659.829 599.045 655.909C616.998 654.364 635.292 652.597 654.973 650.508C721.233 643.494 787.727 634.313 852.031 625.434C956.367 611.027 1064.26 596.129 1170.38 590.793C1231.37 587.839 1311.43 585.695 1389.82 595.408C1471.57 605.539 1540.64 626.813 1600.97 660.45C1646 685.462 1686.34 718.274 1725.36 750.006C1764.22 781.614 1804.41 814.299 1849.23 839.281C1953.35 897.307 2070.67 915.093 2184.14 932.292C2188.68 932.981 2193.22 933.669 2197.74 934.358L2197.67 934.804Z" fill="#ffff"/>
<path d="M2184.06 940.618C2179.64 939.85 2175.22 939.085 2170.78 938.318C2059.87 919.138 1945.19 899.305 1842.94 841.653C1799.09 816.926 1759.55 785.004 1721.31 754.132C1682.65 722.924 1642.67 690.654 1598.27 665.848C1468.17 592.858 1317.38 586.422 1173.8 590.34C1062.23 593.618 948.497 607.541 838.51 621.004C781.446 627.989 722.439 635.213 663.685 640.992C644.064 642.928 625.943 644.571 608.286 646.015C559.874 649.927 503.611 652.708 453.384 643.663C427.309 638.967 404.767 631.296 386.381 620.862C365.668 609.109 349.381 593.385 337.971 574.131C310.747 528.191 300.433 482.155 290.46 437.635C285.283 414.53 280.394 392.707 273.308 371.059C262.963 339.451 247.328 291.684 194.462 285.598C186.367 284.666 177.405 284.759 167.824 285.874C129.915 290.286 91.7369 307.638 58.0533 322.946C37.0237 332.495 15.7872 342.78 -2.46752 351.671C-26.9737 363.593 -53.3552 376.02 -80.2326 386.141L-80.4004 385.703C-53.5416 375.589 -27.1712 363.167 -2.67556 351.251C15.5814 342.358 36.8214 332.071 57.8561 322.52C91.5719 307.197 129.786 289.83 167.77 285.409C177.386 284.29 186.385 284.196 194.516 285.133C217.635 287.794 235.601 298.365 249.442 317.449C260.914 333.267 267.49 351.765 273.758 370.915C280.85 392.583 285.742 414.417 290.921 437.533C300.887 482.018 311.192 528.017 338.378 573.894C360.065 610.49 397.711 633.161 453.468 643.202C503.641 652.236 559.865 649.458 608.248 645.548C625.901 644.104 644.019 642.461 663.638 640.526C722.386 634.747 781.39 627.524 838.452 620.539C948.45 607.074 1062.19 593.15 1173.79 589.872C1233.81 588.234 1312.66 587.764 1390.28 598.758C1470.73 610.153 1538.84 631.965 1598.51 665.44C1642.94 690.265 1682.93 722.548 1721.6 753.768C1759.83 784.628 1799.36 816.537 1843.17 841.245C1945.35 898.858 2059.99 918.683 2170.86 937.857C2175.3 938.623 2179.72 939.389 2184.15 940.156L2184.06 940.618Z" fill="#ffff"/>
<path d="M2170.45 946.43C2166.17 945.591 2161.88 944.753 2157.58 943.913C2049.23 922.758 1937.2 900.883 1836.88 843.631C1794.05 819.188 1755.18 788.052 1717.59 757.941C1679.26 727.234 1639.62 695.481 1595.8 670.851C1471.34 600.578 1328.96 589.391 1192.47 589.391C1187.37 589.391 1182.28 589.406 1177.19 589.435C1059.11 590.374 943.753 602.747 821.617 615.845C772.875 621.073 722.473 626.478 672.348 631.026C652.736 632.811 634.791 634.33 617.49 635.669C569.533 639.33 513.823 641.97 464.233 633.798C438.391 629.539 415.912 622.534 397.419 612.976C376.602 602.216 359.953 587.787 347.937 570.087C319.277 527.871 306.105 486.191 293.367 445.882C286.651 424.63 280.307 404.556 271.886 384.7L271.843 384.598C258.918 354.12 241.215 312.378 190.316 308.176C182.318 307.516 173.483 307.831 164.056 309.113C127.086 314.141 90.8192 330.735 55.7467 346.782C35.2246 356.162 14.2942 366.28 -4.17203 375.208C-26.8733 386.167 -53.8084 398.686 -81.4626 408.437L-81.6265 407.98C-53.9948 398.238 -27.0751 385.726 -4.38627 374.772C14.0823 365.844 35.015 355.725 55.5418 346.342C90.6468 330.28 126.947 313.672 163.989 308.633C173.452 307.346 182.323 307.031 190.356 307.693C213.06 309.568 231.135 318.842 245.612 336.044C258.047 350.82 265.615 368.666 272.293 384.41L272.335 384.512C280.766 404.39 287.113 424.474 293.832 445.737C306.56 486.013 319.722 527.659 348.342 569.817C371.176 603.451 409.11 624.223 464.313 633.32C513.85 641.484 569.524 638.845 617.451 635.187C634.75 633.848 652.692 632.33 672.303 630.544C722.423 625.996 772.823 620.592 821.564 615.364C943.712 602.264 1059.09 589.89 1177.19 588.951C1236.22 588.617 1313.84 589.81 1390.74 602.109C1469.88 614.764 1537.03 637.112 1596.04 670.43C1639.89 695.079 1679.55 726.845 1717.9 757.564C1755.47 787.664 1794.33 818.788 1837.12 843.211C1937.38 900.423 2049.37 922.291 2157.67 943.439C2161.97 944.278 2166.26 945.116 2170.55 945.955L2170.45 946.43Z" fill="#ffff"/>
<path d="M2156.84 952.243C2152.72 951.34 2148.6 950.438 2144.47 949.535C2038.66 926.401 1929.24 902.479 1830.81 845.609C1789.03 821.465 1750.85 791.127 1713.93 761.789C1675.91 731.57 1636.58 700.321 1593.33 675.855C1464.74 602.782 1312.53 590.706 1180.59 588.531C1171.91 588.409 1163.22 588.35 1154.57 588.35C1037.6 588.35 922.193 599.065 800.483 610.365C761.447 613.989 721.083 617.737 681.011 621.061C661.27 622.705 643.502 624.1 626.692 625.325C579.178 628.735 524.006 631.237 475.058 623.93C449.443 620.106 427.026 613.766 408.43 605.086C387.511 595.32 370.512 582.186 357.905 566.046C327.944 527.687 312.014 490.482 296.609 454.501C288.248 434.972 280.35 416.527 270.467 398.344L269.311 396.214C254.076 368.124 235.115 333.165 186.171 330.754C178.27 330.365 169.563 330.903 160.288 332.353C124.286 337.98 88.8484 354.306 54.5774 370.095L53.44 370.619C35.8741 378.703 18.1591 387.207 1.0279 395.431L-5.87711 398.745C-28.0693 409.376 -54.5501 421.49 -82.6927 430.733L-82.8516 430.259C-54.7356 421.025 -28.2739 408.919 -6.09639 398.296L0.80825 394.981C17.9418 386.756 35.6584 378.251 53.2277 370.166L54.3651 369.642C88.6678 353.838 124.138 337.497 160.21 331.859C169.519 330.404 178.261 329.864 186.196 330.255C208.051 331.332 225.932 339.014 240.863 353.741C253.731 366.433 262.244 382.129 269.755 395.977L270.911 398.106C280.806 416.31 288.708 434.766 297.074 454.305C312.466 490.257 328.383 527.432 358.305 565.739C382.257 596.403 420.472 615.276 475.135 623.436C524.034 630.734 579.17 628.235 626.657 624.826C643.465 623.601 661.231 622.206 680.971 620.562C721.041 617.239 761.403 613.492 800.437 609.867C922.145 598.567 1037.59 587.85 1154.56 587.85C1163.24 587.85 1171.9 587.909 1180.59 588.031C1238.6 588.987 1314.97 591.833 1391.21 605.46C1469.02 619.369 1535.21 642.253 1593.58 675.421C1636.87 699.907 1676.21 731.167 1714.25 761.398C1751.16 790.726 1789.32 821.052 1831.07 845.176C1929.43 902.007 2038.81 925.921 2144.58 949.047C2148.71 949.95 2152.83 950.852 2156.95 951.754L2156.84 952.243Z" fill="#ffff"/>
<path d="M2143.23 958.055C2139.32 957.101 2135.4 956.148 2131.47 955.194C2028.16 930.073 1921.32 904.096 1824.75 847.587C1784.03 823.758 1746.57 794.234 1710.34 765.682C1672.6 735.934 1633.57 705.175 1590.85 680.858C1463.03 607.736 1313.45 592.695 1183.98 587.626C1048.49 582.675 915.055 593.291 773.784 604.53C746.281 606.718 717.84 608.981 689.675 611.094C669.541 612.612 651.95 613.883 635.895 614.979C588.799 618.141 534.143 620.505 485.856 614.06C431.587 606.818 392.996 589.79 367.876 562.004C336.866 527.704 318.367 495.121 300.477 463.613C290.269 445.633 280.627 428.65 269.052 411.99C268.222 410.797 267.385 409.581 266.535 408.349C249.854 384.155 229.093 354.045 182.025 353.331C174.225 353.214 165.642 353.973 156.52 355.591C121.507 361.797 86.9603 377.829 53.5509 393.333L51.1323 394.454C36.4812 401.243 21.6737 408.316 7.35265 415.156C2.37378 417.534 -2.60393 419.911 -7.58318 422.281C-28.0708 432.018 -55.2636 444.312 -83.9254 453.029L-84.0776 452.536C-55.4488 443.829 -28.2793 431.545 -7.80865 421.817C-2.829 419.447 2.14832 417.069 7.12679 414.691C21.4486 407.851 36.2581 400.777 50.9115 393.987L53.3297 392.865C86.7696 377.347 121.348 361.301 156.428 355.082C165.583 353.459 174.198 352.7 182.032 352.816C203.067 353.135 220.738 359.317 236.055 371.717C249.298 382.437 258.683 396.048 266.963 408.058C267.813 409.29 268.65 410.505 269.479 411.698C281.067 428.377 290.715 445.37 300.929 463.36C318.806 494.845 337.29 527.401 368.262 561.661C393.296 589.351 431.784 606.324 485.924 613.55C534.166 619.988 588.789 617.625 635.858 614.465C651.912 613.369 669.502 612.098 689.634 610.58C717.799 608.468 746.238 606.205 773.742 604.017C915.029 592.776 1048.48 582.159 1184 587.111C1268.6 590.423 1332.64 597.116 1391.67 608.811C1468.14 623.965 1533.38 647.385 1591.11 680.412C1633.87 704.748 1672.91 735.52 1710.67 765.279C1746.88 793.82 1784.32 823.332 1825.01 847.143C1921.52 903.614 2028.32 929.581 2131.59 954.693C2135.52 955.647 2139.44 956.6 2143.35 957.554L2143.23 958.055Z" fill="#ffff"/>
<path d="M2129.62 963.866C2125.96 962.88 2122.29 961.894 2118.62 960.908C2017.75 933.787 1913.45 905.742 1818.68 849.565C1779.06 826.07 1742.34 797.38 1706.84 769.634C1669.36 740.339 1630.6 710.048 1588.38 685.862C1461.19 612.607 1314.29 594.637 1187.37 586.721C1147.52 584.344 1107.77 583.334 1067.93 583.334C960.452 583.334 852.316 590.682 739.602 598.339C725.879 599.271 712.124 600.205 698.337 601.129C682.499 602.195 663.789 603.445 645.097 604.635C596.024 607.698 544.074 609.765 496.622 604.199C442.863 597.892 404.012 582.769 377.849 557.965C346.276 528.032 325.564 500.27 305.534 473.423C293.088 456.739 281.331 440.981 267.642 425.64C266.295 424.13 264.957 422.607 263.541 420.995C245.547 400.51 223.149 375.018 177.881 375.91C170.179 376.062 161.725 377.045 152.752 378.83C118.754 385.596 85.1279 401.319 52.6087 416.524L48.8254 418.292C37.0271 423.797 25.0797 429.486 13.5255 434.988C6.05025 438.547 -1.67953 442.227 -9.28846 445.82C-39.1895 459.915 -62.5881 469.015 -85.1561 475.326L-85.3018 474.815C-62.7636 468.513 -39.3914 459.422 -9.51819 445.34C-1.91042 441.748 5.81937 438.068 13.2939 434.509C24.8488 429.007 36.7974 423.318 48.5972 417.812L52.3806 416.044C84.9288 400.825 118.585 385.089 152.647 378.31C161.65 376.517 170.137 375.532 177.87 375.379C223.403 374.482 245.878 400.077 263.945 420.646C265.361 422.258 266.698 423.78 268.044 425.289C281.748 440.647 293.511 456.414 305.965 473.107C325.981 499.937 346.68 527.68 378.219 557.582C404.296 582.303 443.046 597.38 496.685 603.672C544.094 609.233 596.016 607.166 645.063 604.105C663.754 602.916 682.464 601.665 698.302 600.599C712.089 599.676 725.843 598.742 739.565 597.809C852.274 590.152 960.448 582.803 1067.93 582.803C1107.79 582.803 1147.53 583.812 1187.4 586.191C1270.38 591.367 1333.52 599.376 1392.13 612.163C1467.26 628.552 1531.54 652.509 1588.65 685.403C1630.9 709.607 1669.67 739.911 1707.17 769.218C1742.66 796.954 1779.36 825.633 1818.96 849.109C1913.66 905.25 2017.93 933.284 2118.76 960.396C2122.43 961.383 2126.1 962.369 2129.76 963.355L2129.62 963.866Z" fill="#ffff"/>
<path d="M2116.01 969.678L2105.95 966.702C2007.47 937.559 1905.63 907.425 1812.62 851.542C1774.12 828.408 1738.19 800.574 1703.44 773.658C1666.18 744.792 1627.65 714.943 1585.91 690.865C1459.19 617.377 1315.05 596.524 1190.76 585.816C1132.82 580.985 1074.69 579.103 1016.74 579.103C912.426 579.103 808.615 585.197 707 591.163C699.165 591.626 691.33 592.092 683.495 592.558C673.764 593.138 664.032 593.717 654.299 594.29C605.544 597.099 553.998 599.051 507.358 594.351C454.084 588.981 414.984 575.758 387.825 553.926C356.658 528.871 334.442 506.212 312.957 484.3C297.482 468.516 282.865 453.608 266.24 439.291C264.311 437.629 262.392 435.932 260.359 434.136C241.174 417.176 217.297 396.068 173.737 398.488C166.135 398.91 157.807 400.114 148.986 402.069C116.032 409.37 83.3632 424.766 51.77 439.655C50.0147 440.483 48.264 441.308 46.5184 442.129C37.5354 446.35 28.4257 450.683 19.6154 454.874C9.5895 459.643 -0.778099 464.574 -10.9938 469.357C-40.418 483.113 -63.6705 491.83 -86.3892 497.623L-86.5264 497.094C-63.8433 491.31 -40.6206 482.603 -11.2294 468.863C-1.01519 464.08 9.35163 459.15 19.3768 454.381C28.1874 450.19 37.2983 445.857 46.2817 441.635C48.0269 440.814 49.7776 439.989 51.5329 439.162C83.1537 424.26 115.851 408.85 148.865 401.536C157.716 399.575 166.074 398.365 173.706 397.942C217.497 395.513 241.465 416.701 260.725 433.728C262.757 435.524 264.675 437.22 266.601 438.878C283.243 453.211 297.869 468.127 313.352 483.919C334.825 505.821 357.03 528.467 388.172 553.502C415.245 575.265 454.249 588.45 507.413 593.808C554.015 598.504 605.534 596.553 654.266 593.745C663.999 593.172 673.731 592.593 683.461 592.014C691.297 591.548 699.132 591.081 706.966 590.618C794.647 585.471 873.55 581.071 951.288 579.353C1040.93 577.373 1119.28 579.308 1190.81 585.272C1271.01 592.182 1335.13 601.792 1392.59 615.515C1466.35 633.128 1529.67 657.621 1586.18 690.394C1627.96 714.491 1666.5 744.351 1703.78 773.228C1738.52 800.136 1774.43 827.959 1812.9 851.076C1905.86 906.923 2007.66 937.047 2106.11 966.179L2116.16 969.156L2116.01 969.678Z" fill="#ffff"/>
<path d="M2102.39 975.49L2093.52 972.611C1997.34 941.417 1897.89 909.16 1806.55 853.52C1769.23 830.78 1734.13 803.835 1700.18 777.778C1663.1 749.308 1624.75 719.87 1583.43 695.869C1457.01 622.034 1315.7 598.345 1194.15 584.91C1116.73 576.571 1039.1 573.59 962.479 573.59C878.505 573.59 795.735 577.168 715.663 581.197C697.454 582.12 679.077 583.104 663.502 583.944C634.443 585.477 605.14 586.714 576.706 586.714C506.44 586.715 441.392 579.168 397.805 549.886C369.144 530.631 346.992 513.566 325.57 497.061C305.306 481.45 286.166 466.705 264.844 452.938C262.282 451.284 259.728 449.569 257.025 447.753C235.703 433.431 211.538 417.195 169.595 421.063C162.094 421.755 153.892 423.182 145.22 425.307C113.353 433.111 81.6868 448.159 51.0629 462.712C48.7722 463.801 46.4884 464.886 44.2121 465.965C37.9823 468.914 31.6561 471.926 25.539 474.839C13.0206 480.8 0.0756073 486.963 -12.6989 492.894C-41.6865 506.329 -64.7934 514.665 -87.6209 519.919L-87.7495 519.371C-64.9619 514.126 -41.8895 505.803 -12.9395 492.385C-0.167297 486.455 12.7761 480.292 25.2934 474.332C31.4112 471.419 37.7378 468.406 43.9676 465.458C46.2436 464.379 48.5273 463.294 50.818 462.205C81.4672 447.64 113.16 432.579 145.084 424.76C153.784 422.63 162.013 421.198 169.543 420.504C188.317 418.773 205.29 420.96 221.431 427.188C235.505 432.619 247.107 440.412 257.344 447.288C260.045 449.102 262.596 450.815 265.153 452.467C286.495 466.246 305.644 480.999 325.918 496.617C347.333 513.116 369.478 530.176 398.124 549.42C459.203 590.454 562.699 588.699 663.472 583.383C679.047 582.542 697.425 581.558 715.635 580.635C788.055 576.992 873.425 573.245 957.511 573.086C1044.87 572.925 1122.3 576.606 1194.21 584.351C1272.7 593.026 1335.88 603.993 1393.06 618.866C1465.42 637.689 1527.79 662.718 1583.72 695.384C1625.07 719.403 1663.43 748.853 1700.53 777.333C1734.46 803.382 1769.55 830.317 1806.85 853.041C1898.13 908.646 1997.55 940.892 2093.7 972.077L2102.57 974.955L2102.39 975.49Z" fill="#ffff"/>
<path d="M2088.78 981.3L2081.43 978.695C1987.44 945.397 1890.26 910.965 1800.49 855.498C1764.39 833.193 1730.19 807.177 1697.11 782.018C1660.14 753.905 1621.92 724.834 1580.96 700.872C1453.87 626.118 1309.3 599.149 1197.54 584.005C1033.22 562.198 866.117 565.311 724.325 571.231C708.585 571.895 691.7 572.669 672.704 573.6C625.35 575.863 575.228 577.814 528.751 574.729C476.349 571.251 436.782 561.803 407.788 545.846C386.777 534.282 368.839 523.938 351.492 513.934C320.517 496.07 293.766 480.643 263.453 466.584C260.22 465.085 256.997 463.502 253.586 461.826C231.223 450.843 205.876 438.394 165.454 443.639C158.056 444.599 149.981 446.249 141.455 448.544C110.721 456.816 80.1106 471.491 50.5082 485.683C47.631 487.062 44.7634 488.437 41.906 489.801C38.3911 491.477 34.8778 493.155 31.3656 494.834C16.391 501.987 0.906281 509.386 -14.4034 516.432C-42.983 529.562 -65.9438 537.515 -88.8535 542.216L-88.9717 541.65C-66.1073 536.959 -43.1853 529.019 -14.6486 515.908C0.657173 508.864 16.14 501.467 31.1126 494.314C34.626 492.635 38.1389 490.957 41.6534 489.281C44.5105 487.918 47.3776 486.543 50.2548 485.164C79.8816 470.96 110.517 456.273 141.302 447.987C149.854 445.686 157.954 444.031 165.378 443.067C205.975 437.799 231.407 450.289 253.844 461.309C257.253 462.983 260.472 464.564 263.7 466.061C294.036 480.131 320.798 495.565 351.785 513.435C369.13 523.437 387.065 533.78 408.071 545.341C470.332 579.608 568.762 577.989 672.676 573.023C691.673 572.092 708.56 571.317 724.301 570.654C866.118 564.733 1033.26 561.619 1197.62 583.433C1274.32 593.826 1336.57 606.151 1393.52 622.219C1464.47 642.235 1525.88 667.8 1581.26 700.375C1622.25 724.355 1660.48 753.436 1697.46 781.56C1730.53 806.711 1764.73 832.718 1800.79 855.008C1890.52 910.442 1987.67 944.863 2081.62 978.151L2088.98 980.757L2088.78 981.3Z" fill="#ffff"/>
<path d="M2075.16 987.111L2069.8 985.04C1977.86 949.561 1882.78 912.874 1794.42 857.475C1759.64 835.664 1726.41 810.635 1694.27 786.428C1657.35 758.614 1619.17 729.853 1578.48 705.876C1451.22 630.468 1309.86 600.651 1200.93 583.099C1066.2 561.761 921.886 555.027 732.987 561.265C716.779 561.806 700.07 562.457 681.906 563.255C630.218 565.464 583.82 567.117 539.42 564.968C487.383 562.45 447.592 554.874 417.772 541.805C357.131 515.229 313.316 496.027 262.064 480.225C258.144 479.017 254.24 477.709 250.108 476.324C226.781 468.509 200.342 459.65 161.311 466.216C153.914 467.46 146.187 469.281 137.688 471.783C108.156 480.474 78.6747 494.74 50.1632 508.536C46.6293 510.246 43.1071 511.951 39.598 513.638L37.0017 514.885C19.638 523.228 1.68357 531.854 -16.1109 539.969C-44.3047 552.808 -67.1202 560.377 -90.0884 564.512L-90.1953 563.928C-67.2787 559.802 -44.5069 552.247 -16.3607 539.43C1.42751 531.317 19.3796 522.693 36.7406 514.352L39.3369 513.104C42.8456 511.417 46.3671 509.713 49.9009 508.003C78.4341 494.196 107.938 479.919 137.517 471.213C146.04 468.705 153.79 466.879 161.211 465.631C200.39 459.039 226.905 467.924 250.3 475.762C254.428 477.145 258.328 478.452 262.241 479.658C313.527 495.47 357.354 514.678 418.014 541.262C485.947 571.034 594.586 566.391 681.879 562.662C700.046 561.864 716.757 561.213 732.966 560.672C821.232 557.756 898.751 557.718 969.953 560.555C1053.06 563.866 1128.64 571.049 1201.03 582.513C1275.88 594.574 1337.19 608.256 1393.99 625.57C1463.48 646.757 1523.93 672.858 1578.79 705.365C1619.5 729.359 1657.7 758.131 1694.64 785.955C1726.76 810.154 1759.98 835.176 1794.74 856.973C1883.05 912.342 1978.1 949.018 2070.02 984.487L2075.38 986.557L2075.16 987.111Z" fill="#ffff"/>
<path d="M2061.55 992.921L2058.89 991.806C1968.75 954.018 1875.54 914.943 1788.35 859.452C1755 838.218 1722.86 814.25 1691.78 791.072C1654.79 763.478 1616.53 734.945 1576.01 710.879C1446.82 633.756 1302.01 600.499 1204.32 582.193C1066.97 556.814 919.952 546.997 741.649 551.299C725.507 551.694 708.503 552.236 691.108 552.91L686.432 553.086C640.266 554.824 592.528 556.623 547.812 555.175C497.166 553.536 457.897 547.84 427.76 537.762C361.184 515.498 314.339 503.19 260.677 493.86C256.087 493.062 251.527 492.158 246.698 491.2C222.448 486.391 194.962 480.939 157.171 488.79C149.882 490.304 142.277 492.342 133.923 495.019C105.672 504.072 77.4057 517.887 50.0696 531.247C45.8737 533.297 41.5356 535.417 37.292 537.474C18.7716 546.438 0.620735 555.174 -17.816 563.506C-45.6434 576.061 -68.314 583.248 -91.3225 586.808L-91.417 586.207C-68.4663 582.656 -45.8448 575.484 -18.0705 562.952C0.359238 554.624 18.5058 545.889 37.0224 536.927C41.2656 534.871 45.6029 532.752 49.7981 530.701C77.1543 517.332 105.442 503.507 133.734 494.44C142.11 491.757 149.735 489.713 157.045 488.195C194.958 480.318 222.51 485.782 246.819 490.603C251.644 491.561 256.201 492.464 260.783 493.261C314.478 502.596 361.349 514.911 427.956 537.185C495.219 559.678 592.414 556.017 686.409 552.477L691.084 552.301C708.482 551.628 725.49 551.086 741.634 550.691C826.618 548.64 903.337 549.818 976.175 554.29C1057.29 559.271 1131.96 568.203 1204.43 581.594C1276.37 595.075 1338.52 610.556 1394.45 628.923C1462.45 651.253 1521.94 677.891 1576.33 710.357C1616.87 734.439 1655.14 762.982 1692.16 790.585C1723.22 813.757 1755.35 837.717 1788.69 858.94C1875.83 914.403 1969.01 953.467 2059.13 991.245L2061.79 992.36L2061.55 992.921Z" fill="#ffff"/>
<path d="M2047.93 998.729C1959.8 958.677 1868.66 917.262 1782.29 861.429C1750.52 840.889 1719.65 818.098 1689.8 796.058C1652.57 768.569 1614.07 740.145 1573.54 715.881C1474.54 656.334 1358.3 613.565 1207.71 581.286C1080.13 554.252 943.459 541.023 791.107 541.023C777.625 541.023 764.043 541.126 750.311 541.332C734.176 541.581 717.353 541.995 700.309 542.564C693.224 542.793 686.1 543.034 678.953 543.275C592.406 546.198 502.912 549.221 437.75 533.717C374.518 518.673 322.815 511.075 259.289 507.491C254.107 507.199 248.974 506.803 243.54 506.383C218.349 504.439 189.799 502.236 153.031 511.365C145.848 513.148 138.366 515.402 130.159 518.256C103.304 527.592 76.3719 540.895 50.327 553.76C45.2908 556.248 40.0826 558.821 34.9856 561.309C17.7204 569.731 -0.83223 578.677 -19.5216 587.042C-46.9983 599.323 -69.5233 606.127 -92.5573 609.103L-92.6387 608.484C-69.6686 605.516 -47.1986 598.728 -19.7807 586.473C-1.1007 578.112 17.4465 569.168 34.7071 560.749C39.8033 558.261 45.0104 555.689 50.0462 553.202C76.1089 540.328 103.058 527.016 129.951 517.667C138.177 514.807 145.676 512.547 152.878 510.759C189.745 501.605 218.351 503.813 243.589 505.76C249.021 506.18 254.15 506.575 259.327 506.867C322.892 510.453 374.627 518.056 437.898 533.109C502.976 548.592 592.427 545.572 678.932 542.65C686.08 542.409 693.204 542.168 700.289 541.939C717.336 541.37 734.163 540.955 750.301 540.707C919.266 538.165 1068.93 551.238 1207.84 580.675C1358.5 612.969 1474.8 655.761 1573.86 715.346C1614.42 739.625 1652.93 768.058 1690.18 795.556C1720.02 817.591 1750.88 840.375 1782.63 860.905C1868.96 916.712 1960.08 958.118 2048.2 998.16L2047.93 998.729Z" fill="#ffff"/>
<path d="M2034.32 1004.54C1953.7 964.898 1862.33 919.969 1776.22 863.406C1746.3 843.745 1716.96 822.307 1688.59 801.575C1650.87 774.014 1611.87 745.514 1571.06 720.885C1472.42 661.088 1354.67 615.128 1211.1 580.38C1069.64 546.458 921.746 530.421 758.972 531.367C742.892 531.464 726.251 531.751 709.511 532.219C694.497 532.625 679.076 533.126 664.162 533.61C587.638 536.096 508.509 538.666 447.74 529.671C384.085 520.248 329.085 517.771 257.9 521.119C252.309 521.382 246.795 521.554 240.958 521.736C213.426 522.595 184.956 523.483 148.891 533.939C141.819 535.989 134.46 538.46 126.394 541.493C101.088 551.007 75.6513 563.719 51.0526 576.011C45.0219 579.025 38.7863 582.14 32.6786 585.146C16.9269 592.89 -1.7954 601.967 -21.2278 610.58C-47.9987 622.431 -71.0567 629.047 -93.7928 631.399L-93.8599 630.763C-71.1939 628.417 -48.1982 621.818 -21.4916 609.996C-2.0693 601.388 16.6456 592.313 32.3911 584.573C38.4977 581.568 44.7321 578.453 50.7616 575.44C75.3751 563.14 100.826 550.421 126.165 540.894C134.247 537.856 141.621 535.379 148.709 533.325C184.854 522.846 213.365 521.957 240.937 521.096C246.772 520.914 252.284 520.742 257.869 520.48C329.099 517.128 384.136 519.608 447.835 529.038C508.546 538.025 587.645 535.455 664.141 532.971C679.055 532.487 694.477 531.986 709.492 531.58C726.237 531.111 742.884 530.824 758.968 530.727C837.983 530.269 915.252 533.982 988.62 541.76C1064.94 549.851 1139.85 562.635 1211.25 579.758C1279.17 596.195 1339.4 614.471 1395.38 635.629C1460.2 660.127 1517.78 687.835 1571.4 720.339C1612.23 744.983 1651.24 773.49 1688.97 801.06C1717.34 821.787 1746.67 843.221 1776.58 862.873C1862.65 919.414 1954 964.334 2034.6 1003.97L2034.32 1004.54Z" fill="#ffff"/>
<path d="M2020.7 1010.35C1931.1 962.745 1850.41 918.981 1770.16 865.383C1742.49 846.905 1715.13 827.114 1688.66 807.974C1650.04 780.043 1610.11 751.162 1568.59 725.887C1468.51 664.737 1352.68 616.844 1214.49 579.472C1073.1 541.509 922.752 521.97 767.634 521.4C751.644 521.344 735.184 521.505 718.713 521.874C691.836 522.454 664.271 523.448 637.613 524.41C572.21 526.769 510.435 528.998 457.732 525.62C392.721 521.455 332.542 524.183 256.509 534.742C250.92 535.519 245.18 536.257 239.629 536.973C210.638 540.706 180.661 544.567 144.753 556.512C137.796 558.826 130.56 561.513 122.632 564.728C99.0889 574.274 75.3742 586.278 52.4401 597.888C45.2011 601.552 37.7158 605.341 30.373 608.982C9.11212 619.518 -7.32797 627.27 -22.9324 634.117C-49.3795 645.709 -72.2876 651.93 -95.028 653.695L-95.0791 653.041C-72.4162 651.282 -49.5759 645.078 -23.2001 633.518C-7.60535 626.675 8.82583 618.927 30.0774 608.396C37.4175 604.756 44.9017 600.968 52.1395 597.303C75.0856 585.689 98.813 573.678 122.381 564.122C130.323 560.901 137.572 558.209 144.543 555.89C180.512 543.925 210.523 540.06 239.545 536.322C245.095 535.608 250.832 534.869 256.418 534.093C332.498 523.527 392.717 520.797 457.776 524.966C510.445 528.34 572.204 526.113 637.59 523.754C664.25 522.793 691.818 521.798 718.699 521.218C735.176 520.849 751.641 520.689 767.638 520.744C844.777 521.027 921.221 525.99 994.846 535.494C1069.45 545.124 1143.41 559.708 1214.66 578.839C1352.92 616.227 1468.8 664.144 1568.94 725.328C1610.48 750.616 1650.42 779.505 1689.05 807.444C1715.51 826.58 1742.88 846.368 1770.53 864.839C1850.75 918.419 1931.43 962.175 2021.01 1009.77L2020.7 1010.35Z" fill="#ffff"/>
<path d="M2007.08 1016.15C1932.73 973.523 1846.5 923.354 1764.09 867.36C1739.48 850.635 1714.9 833.038 1691.14 816.022C1650.84 787.167 1609.17 757.329 1566.11 730.891C1465.46 668.889 1348.29 617.639 1217.87 578.565C1075.13 536.024 926.566 513.437 776.295 511.435C760.411 511.227 744.133 511.258 727.914 511.529C688.128 512.169 647.644 514.517 608.492 516.787C558.222 519.703 510.741 522.458 467.71 521.569C390.579 519.982 323.134 533.337 255.114 548.365C250.472 549.391 245.731 550.419 241.146 551.412C209.822 558.201 177.431 565.222 140.614 579.085C133.776 581.66 126.663 584.564 118.867 587.965C97.4113 597.324 75.7533 608.449 54.8089 619.205C46.0421 623.708 36.9769 628.364 28.0652 632.818C7.71545 642.985 -9.03186 650.876 -24.6398 657.655C-50.7703 668.992 -73.5293 674.818 -96.265 675.99L-96.3003 675.32C-73.649 674.152 -50.9648 668.343 -24.9118 657.04C-9.31544 650.267 7.42178 642.38 27.7599 632.219C36.6682 627.766 45.7314 623.111 54.4967 618.609C75.4512 607.848 97.1184 596.719 118.594 587.351C126.4 583.946 133.524 581.036 140.373 578.458C177.237 564.577 209.653 557.551 241 550.757C245.585 549.763 250.325 548.736 254.966 547.711C323.028 532.673 390.517 519.306 467.724 520.899C510.728 521.786 558.197 519.032 608.452 516.118C647.611 513.846 688.103 511.498 727.903 510.859C744.129 510.587 760.413 510.555 776.304 510.764C851.786 511.77 927.407 517.983 1001.07 529.231C1074.04 540.373 1147.05 556.755 1218.07 577.923C1280.76 596.707 1340.73 618.379 1396.31 642.336C1456.69 668.361 1513.94 697.964 1566.47 730.321C1609.54 756.772 1651.22 786.617 1691.53 815.478C1715.29 832.493 1739.87 850.087 1764.47 866.807C1846.87 922.788 1933.08 972.95 2007.42 1015.57L2007.08 1016.15Z" fill="#ffff"/>
<path d="M1993.46 1021.96C1928.77 981.971 1843.55 928.485 1758.02 869.336C1738.18 855.615 1718.2 841.427 1698.87 827.705C1655.19 796.7 1610.02 764.639 1563.64 735.894C1460.31 671.715 1345.11 618.478 1221.26 577.657C1077.64 530.484 930.847 504.851 784.956 501.468C769.195 501.105 753.1 501.009 737.115 501.184C652.327 502.07 566.004 509.706 489.843 516.444L477.713 517.516C405.85 523.856 334.674 537.986 253.717 561.986L253.017 562.191C216.056 573.019 177.836 584.216 136.476 601.657C129.763 604.487 122.773 607.609 115.105 611.2C96.2329 620.039 77.148 630.01 58.6907 639.653C47.9067 645.288 36.7557 651.114 25.7598 656.655C5.95046 666.634 -10.6062 674.431 -26.3455 681.193C-52.1673 692.279 -74.7775 697.71 -97.5012 698.286L-97.519 697.599C-74.8871 697.026 -52.3587 691.612 -26.621 680.562C-10.8952 673.806 5.64907 666.015 25.446 656.042C36.4373 650.503 47.5863 644.678 58.3676 639.046C76.8311 629.399 95.923 619.423 114.809 610.578C122.485 606.984 129.484 603.858 136.205 601.024C177.602 583.569 215.841 572.366 252.821 561.532L253.519 561.327C334.521 537.314 405.741 523.175 477.652 516.832L489.781 515.76C565.955 509.021 652.292 501.383 737.108 500.497C753.1 500.322 769.204 500.418 784.972 500.781C858.964 502.497 933.763 509.96 1007.29 522.965C1078.69 535.594 1150.76 553.775 1221.48 577.005C1345.38 617.842 1460.63 671.104 1564.01 735.311C1610.41 764.068 1655.58 796.135 1699.27 827.146C1718.6 840.866 1738.58 855.054 1758.42 868.773C1843.94 927.912 1929.15 981.392 1993.83 1021.38L1993.46 1021.96Z" fill="#ffff"/>
<path d="M1979.85 1027.77C1908.57 980.299 1834.03 929.122 1751.96 871.314C1742.08 864.356 1732.05 857.263 1722.35 850.404C1670.21 813.521 1616.29 775.384 1561.16 740.897C1454.21 673.904 1340.98 618.678 1224.65 576.749C1080.54 524.902 935.523 496.221 793.616 491.502C777.999 490.984 762.085 490.763 746.316 490.839C667.69 491.209 580.679 498.821 487.703 513.462C411.741 525.423 334.745 545.751 252.316 575.607C217.655 588.103 176.295 603.653 132.338 624.228C126.131 627.133 119.46 630.377 111.342 634.435C96.1168 642.105 80.6816 650.335 65.7539 658.293C51.9214 665.668 37.6182 673.294 23.4529 680.491C4.12708 690.309 -12.239 698.011 -28.0523 704.73C-53.5072 715.543 -75.9226 720.582 -98.5719 720.582C-98.6285 720.582 -98.6823 720.582 -98.7393 720.582L-98.7385 719.879C-98.6846 719.879 -98.6265 719.88 -98.5727 719.88C-76.0202 719.88 -53.6978 714.86 -28.3312 704.085C-12.5334 697.372 3.8187 689.676 23.1298 679.866C37.2889 672.673 51.589 665.048 65.4184 657.675C80.3492 649.714 95.7886 641.483 111.022 633.809C119.147 629.747 125.824 626.502 132.035 623.593C176.018 603.006 217.397 587.449 252.074 574.947C334.546 545.075 411.584 524.737 487.592 512.768C580.604 498.122 667.651 490.508 746.313 490.137C762.09 490.058 778.013 490.282 793.641 490.801C866.27 493.216 940.248 501.93 1013.52 516.703C1083.42 530.795 1154.53 550.776 1224.89 576.089C1341.28 618.034 1454.54 673.284 1561.54 740.303C1616.69 774.802 1670.61 812.944 1722.77 849.832C1732.46 856.69 1742.49 863.783 1752.37 870.741C1834.44 928.547 1908.97 979.719 1980.24 1027.18L1979.85 1027.77Z" fill="#ffff"/>
<path d="M1966.23 1033.57C1928.96 1006.84 1891.32 979.275 1854.92 952.613C1759.36 882.624 1660.55 810.251 1558.69 745.9C1293.94 578.643 1046.52 492.169 802.277 481.536C585.85 472.113 359.059 527.717 128.201 646.799C110.759 655.796 93.1737 665.453 76.1672 674.793C41.9803 693.568 6.6301 712.981 -29.758 728.268C-54.9789 738.863 -77.2916 743.505 -99.9766 742.877L-99.9564 742.159C-77.3787 742.787 -55.1625 738.16 -30.0408 727.607C6.31244 712.335 41.6456 692.931 75.8159 674.165C92.8262 664.823 110.416 655.163 127.866 646.162C181.449 618.523 235.358 594.011 288.098 573.306C343.682 551.485 399.607 533.248 454.32 519.103C511.717 504.263 569.454 493.494 625.926 487.093C684.944 480.404 744.289 478.294 802.308 480.819C868.481 483.7 936.255 492.479 1003.75 506.914C1067.46 520.539 1132.7 539.586 1197.67 563.525C1258.57 585.964 1320.96 613.344 1383.1 644.902C1440.82 674.209 1500.03 707.986 1559.08 745.294C1660.96 809.659 1759.78 882.039 1855.35 952.036C1891.75 978.697 1929.39 1006.27 1966.65 1032.99L1966.23 1033.57Z" fill="#ffff"/>
<path d="M1973.97 1009.14C1947.79 990.218 1921.27 970.857 1895.63 952.134C1840.73 912.048 1783.95 870.597 1727.21 831.068C1668.56 790.184 1616.37 755.712 1567.67 725.682C1465.18 662.472 1362.99 610.42 1263.95 570.973C1116.23 512.035 965.281 479.722 815.292 474.931C752.66 472.932 693.482 484.837 641.27 495.342C588.878 505.883 536.698 520.074 481.453 535.099L473.532 537.253C428.534 549.419 394.079 559.358 361.813 569.478C314.625 584.255 267.808 600.727 222.66 618.439C192.4 630.305 161.492 643.265 130.795 656.958C113.496 664.669 96.0542 672.906 79.1868 680.871C48.7798 695.231 17.338 710.079 -14.4242 722.391C-21.266 725.046 -27.9987 727.531 -34.4357 729.778C-60.6673 738.996 -83.6022 742.357 -106.612 740.355L-106.547 739.624C-83.6471 741.616 -60.8118 738.268 -34.6825 729.087C-28.2528 726.842 -21.5279 724.359 -14.6942 721.707C17.0436 709.406 48.4729 694.563 78.868 680.209C95.7392 672.242 113.185 664.003 130.491 656.289C161.199 642.592 192.117 629.627 222.388 617.758C267.551 600.039 314.385 583.56 361.59 568.779C393.865 558.656 428.329 548.714 473.336 536.545L481.257 534.392C536.514 519.364 588.706 505.169 641.123 494.623C693.374 484.11 752.597 472.193 815.316 474.198C890.952 476.614 967.9 486.208 1044.02 502.714C1117.9 518.732 1191.98 541.469 1264.23 570.292C1315.3 590.636 1367.54 614.458 1419.49 641.094C1468.36 666.145 1518.34 694.395 1568.07 725.059C1616.77 755.097 1668.97 789.577 1727.64 830.469C1784.39 870.002 1841.16 911.456 1896.07 951.544C1921.71 970.267 1948.23 989.628 1974.4 1008.54L1973.97 1009.14Z" fill="#ffff"/>
<path d="M1981.71 984.701C1967.34 974.233 1952.75 963.573 1938.63 953.265C1872.74 905.13 1804.61 855.356 1736.06 808.492C1677.98 768.753 1625.84 735.051 1576.66 705.463C1474.5 644.004 1372.52 593.554 1273.53 555.514C1104.12 490.183 958.492 461.661 828.334 468.324C768.68 471.377 718.191 485.074 658.385 502.662C634.44 509.703 610.655 517.461 585.474 525.673C555.395 535.483 524.291 545.627 491.194 555.06C473.062 560.181 454.542 565.239 436.633 570.13C416.306 575.682 395.287 581.422 374.826 587.259C322.471 602.148 274.919 616.91 229.45 632.387C197.933 643.106 165.613 654.79 133.388 667.115C116.559 673.541 99.5869 680.369 83.1732 686.973C50.1558 700.255 16.0143 713.99 -18.314 724.985C-25.4716 727.283 -32.4704 729.404 -39.1147 731.287C-66.3989 739.13 -89.9551 741.21 -113.248 737.831L-113.138 737.089C-89.9571 740.452 -66.5023 738.38 -39.3235 730.567C-32.6858 728.686 -25.6959 726.568 -18.5465 724.272C15.7559 713.286 49.8846 699.556 82.8888 686.278C99.3056 679.674 116.281 672.845 133.116 666.416C165.35 654.088 197.68 642.4 229.205 631.678C274.686 616.197 322.251 601.432 374.618 586.539C395.083 580.701 416.103 574.96 436.432 569.408C454.34 564.517 472.858 559.459 490.986 554.339C524.069 544.911 555.165 534.769 585.238 524.961C610.425 516.746 634.214 508.988 658.17 501.943C718.025 484.341 768.558 470.633 828.296 467.575C864.767 465.709 902.929 466.604 941.721 470.237C977.957 473.63 1015.89 479.521 1054.48 487.747C1122.81 502.315 1194.56 524.253 1273.81 554.815C1372.83 592.87 1474.86 643.34 1577.05 704.821C1626.25 734.417 1678.4 768.127 1736.49 807.874C1805.05 854.745 1873.19 904.522 1939.08 952.661C1953.19 962.969 1967.79 973.629 1982.16 984.096L1981.71 984.701Z" fill="#ffff"/>
<path d="M1989.45 960.266L1984.24 956.444C1906.6 899.449 1826.32 840.514 1744.9 785.916C1687.37 747.285 1635.28 714.355 1585.64 685.245C1483.83 625.53 1382.04 576.681 1283.12 540.056C1106.6 474.369 966.232 449.477 841.365 461.718C782.804 467.459 733.708 486.917 686.229 505.735C682.657 507.151 679.083 508.567 675.503 509.979C662.545 515.089 649.732 520.352 636.166 525.923C596.687 542.137 555.863 558.903 508.857 572.868C477.814 581.987 445.892 590.156 415.021 598.057C406.094 600.342 396.864 602.704 387.84 605.042C326.459 620.877 279.704 633.612 236.241 646.335C203.568 655.887 169.836 666.296 135.982 677.272C120 682.441 103.874 687.9 88.2793 693.179C52.281 705.366 15.0561 717.968 -22.2033 727.579C-29.1451 729.378 -36.4085 731.132 -43.7919 732.795C-72.3468 739.225 -96.5248 740.023 -119.882 735.307L-119.729 734.557C-96.4826 739.251 -72.4072 738.454 -43.9635 732.049C-36.5878 730.388 -29.3318 728.635 -22.3981 726.839C14.8341 717.235 52.0447 704.639 88.0299 692.456C103.627 687.175 119.755 681.716 135.742 676.545C169.603 665.567 203.343 655.156 236.023 645.601C279.494 632.876 326.256 620.138 387.645 604.302C396.67 601.964 405.901 599.601 414.828 597.316C445.693 589.418 477.608 581.249 508.636 572.135C555.604 558.181 596.409 541.423 635.871 525.216C649.44 519.644 662.256 514.381 675.218 509.269C678.798 507.857 682.371 506.44 685.943 505.025C733.472 486.188 782.619 466.708 841.289 460.957C876.812 457.474 914.367 457.049 952.912 459.693C988.527 462.135 1026.18 467.284 1064.84 474.995C1131.04 488.202 1202.53 509.25 1283.39 539.34C1382.35 575.98 1484.18 624.848 1586.04 684.586C1635.68 713.704 1687.79 746.642 1745.33 785.283C1826.76 839.889 1907.05 898.829 1984.7 955.829L1989.91 959.65L1989.45 960.266Z" fill="#ffff"/>
<path d="M1997.19 935.83C1920.89 879.376 1839.23 819.555 1753.74 763.341C1696.72 725.779 1644.67 693.62 1594.63 665.027C1493.15 607.046 1391.56 559.799 1292.7 524.599C1191.33 488.26 1064.12 449.431 936.068 449.431C908.793 449.431 881.506 451.191 854.394 455.11C798.272 463.225 753.9 485.956 710.99 507.938C704.979 511.018 698.764 514.202 692.619 517.294C685.595 520.827 678.36 524.521 671.364 528.094C627.79 550.342 582.733 573.349 526.518 590.677C488.175 602.344 448.487 611.652 410.105 620.653C407.016 621.378 403.932 622.101 400.853 622.825C391.846 624.929 382.856 627.023 373.884 629.114C330.724 639.169 286.094 649.567 243.031 660.283C209.412 668.634 174.268 677.767 138.574 687.429C123.879 691.393 109.042 695.552 94.6932 699.574C55.278 710.622 14.5204 722.047 -26.0942 730.174C-33.239 731.612 -40.7681 733.002 -48.4716 734.303C-78.1972 739.324 -102.997 738.841 -126.518 732.782L-126.32 732.027C-102.911 738.056 -78.2162 738.536 -48.6037 733.534C-40.9088 732.234 -33.3882 730.846 -26.2503 729.409C14.3352 721.288 55.0781 709.867 94.479 698.823C108.83 694.801 123.669 690.641 138.367 686.676C174.066 677.013 209.216 667.878 242.84 659.526C285.909 648.809 330.542 638.41 373.705 628.354C382.676 626.264 391.666 624.17 400.672 622.065C403.751 621.342 406.835 620.618 409.925 619.894C448.294 610.895 487.969 601.591 526.286 589.931C582.434 572.624 627.46 549.634 671.004 527.4C678.001 523.827 685.237 520.133 692.263 516.598C698.406 513.508 704.62 510.325 710.63 507.246C753.597 485.234 798.028 462.473 854.281 454.339C888.875 449.337 925.806 447.644 964.048 449.306C999.098 450.828 1036.48 455.228 1075.15 462.382C1140.44 474.462 1209.65 493.998 1292.97 523.866C1391.88 559.081 1493.5 606.348 1595.02 664.352C1645.08 692.953 1697.14 725.12 1754.18 762.693C1839.69 818.917 1921.35 878.746 1997.66 935.206L1997.19 935.83Z" fill="#ffff"/>
<path d="M2004.93 911.394C1934.41 858.805 1850.47 797.408 1762.59 740.765C1706.05 704.249 1654.05 672.862 1603.61 644.808C1502.47 588.553 1401.09 542.907 1302.29 509.14C1204.18 475.326 1082.97 439.813 963.91 439.813C931.413 439.813 899.093 442.456 867.424 448.501C812.223 459.039 771.204 485.338 731.536 510.772C724.412 515.339 717.046 520.062 709.735 524.603C706.449 526.644 703.147 528.703 699.825 530.776C654.495 559.044 607.622 588.275 544.18 608.484C500.672 622.153 454.555 631.956 413.866 640.606C383.245 647.07 352.412 653.314 322.593 659.353C298.656 664.201 273.903 669.213 249.821 674.229C215.316 681.398 179.775 689.038 141.167 697.583C128.258 700.427 115.212 703.389 102.597 706.254C59.2676 716.092 14.4632 726.265 -29.9851 732.764C-37.3589 733.853 -45.1534 734.877 -53.1512 735.808C-84.0716 739.404 -109.493 737.641 -133.153 730.255L-132.912 729.496C-109.363 736.846 -84.0491 738.6 -53.2446 735.017C-45.2549 734.087 -37.4689 733.064 -30.1025 731.977C14.3152 725.481 59.1037 715.312 102.418 705.477C115.035 702.612 128.082 699.65 140.992 696.806C179.603 688.26 215.148 680.62 249.656 673.449C273.74 668.433 298.494 663.42 322.433 658.572C352.25 652.534 383.081 646.29 413.699 639.827C454.369 631.182 500.466 621.383 543.935 607.725C607.279 587.547 654.109 558.343 699.397 530.101C702.72 528.029 706.022 525.97 709.309 523.928C716.614 519.39 723.978 514.669 731.1 510.103C770.832 484.628 811.918 458.287 867.272 447.719C900.951 441.29 937.246 438.379 975.147 439.07C1009.67 439.698 1046.77 443.344 1085.42 449.904C1149.2 460.73 1218.2 479.314 1302.55 508.388C1401.4 542.17 1502.82 587.835 1604.01 644.114C1654.46 672.176 1706.47 703.572 1763.02 740.098C1850.93 796.753 1934.89 858.16 2005.41 910.758L2004.93 911.394Z" fill="#ffff"/>
<path d="M2012.67 886.959C1918.18 815.921 1843.77 763.871 1771.43 718.19C1715.35 682.687 1663.39 652.07 1612.6 624.591C1511.79 570.051 1410.61 526.007 1311.87 493.682C1185.53 451.902 1022.32 408.259 880.454 441.892C825.396 454.945 787.07 484.98 750.006 514.027C742.45 519.948 734.638 526.071 726.851 531.91L723.923 534.106C701.617 550.842 678.552 568.146 652.244 584.208C622.395 602.432 592.824 616.197 561.84 626.292C518.953 640.264 475.345 649.094 426.88 658.388C381.273 667.062 335.551 674.799 291.334 682.282C279.934 684.211 268.145 686.206 256.611 688.175C223.731 693.77 188.926 699.804 143.76 707.738C133.216 709.579 122.548 711.481 112.231 713.321C62.2077 722.242 14.9596 730.669 -33.876 735.356C-41.5245 736.101 -49.5847 736.76 -57.8309 737.313C-89.9626 739.469 -116.005 736.423 -139.788 727.728L-139.505 726.967C-115.834 735.621 -89.8991 738.651 -57.8859 736.503C-49.6479 735.951 -41.5965 735.293 -33.9554 734.548C14.8469 729.864 62.0795 721.44 112.085 712.522C122.403 710.682 133.072 708.78 143.617 706.939C188.784 699.005 223.59 692.971 256.472 687.376C268.006 685.406 279.795 683.412 291.196 681.482C335.409 674 381.127 666.263 426.725 657.591C475.161 648.303 518.742 639.478 561.584 625.521C630.765 602.982 679.994 566.047 723.429 533.46L726.356 531.263C734.137 525.429 741.946 519.309 749.498 513.39C786.632 484.289 825.03 454.197 880.264 441.103C913.039 433.333 948.69 429.257 986.226 428.988C1020.27 428.743 1057.09 431.629 1095.68 437.562C1158.24 447.179 1227.02 464.768 1312.13 492.913C1410.91 525.252 1512.14 569.315 1612.99 623.879C1663.8 651.367 1715.77 681.993 1771.87 717.506C1844.23 763.199 1918.65 815.261 2013.17 886.312L2012.67 886.959Z" fill="#ffff"/>
<path d="M2020.41 862.523C1930.36 794.275 1854.05 741.238 1780.27 695.615C1724.61 661.098 1672.71 631.254 1621.58 604.373C1521.1 551.541 1420.13 509.098 1321.46 478.225C1225.27 447.774 1118.27 419.46 1015.62 419.46C973.847 419.46 932.81 424.145 893.485 435.282C838.127 450.959 802.141 484.84 767.341 517.605C759.726 524.774 751.852 532.187 743.964 539.216C724.643 556.431 700.597 577.856 673.07 596.879C643.033 617.636 612.427 633.082 579.502 644.1C533.967 659.336 485.566 668.297 439.894 676.169C382.736 685.929 325.611 693.68 270.366 701.175L244.572 704.668C212.257 709.039 178.843 713.56 146.354 717.891C138.837 718.885 131.34 719.888 123.857 720.889C68.4355 728.305 16.0873 735.309 -37.7648 737.946C-45.722 738.347 -54.0468 738.641 -62.5084 738.817C-95.8674 739.512 -122.532 735.186 -146.42 725.201L-146.096 724.439C-122.319 734.377 -95.7605 738.681 -62.5258 737.99C-54.0732 737.814 -45.7565 737.521 -37.8066 737.119C16.011 734.484 68.3417 727.482 123.745 720.069C131.228 719.069 138.726 718.065 146.243 717.072C178.731 712.741 212.145 708.22 244.459 703.848L270.253 700.356C325.49 692.861 382.608 685.112 439.752 675.354C485.391 667.488 533.756 658.534 579.235 643.316C653.936 618.32 703.544 574.118 743.406 538.601C751.285 531.58 759.155 524.171 766.765 517.006C801.64 484.172 837.7 450.221 893.256 434.487C925.141 425.456 960.147 420.262 997.3 419.047C1030.87 417.95 1067.42 420.069 1105.93 425.345C1186.88 436.434 1267.85 460.385 1321.71 477.437C1420.43 508.325 1521.45 550.786 1621.97 603.643C1673.11 630.532 1725.04 660.387 1780.72 694.914C1854.52 740.552 1930.84 793.602 2020.92 861.866L2020.41 862.523Z" fill="#ffff"/>
<path d="M2028.15 838.087C1940.68 771.25 1864.72 718.805 1789.12 673.039C1733.86 639.49 1682 610.415 1630.57 584.155C1530.42 533.02 1429.64 492.18 1331.04 462.767C1238.5 434.794 1136.36 409.091 1039.15 409.091C993.334 409.091 948.627 414.798 906.516 428.67C850.588 447.094 816.742 484.896 784.01 521.453C776.554 529.781 768.845 538.39 761.076 546.518C740.713 567.822 718.618 590.319 692.163 610.618C662.493 633.385 631.418 650.161 597.163 661.907C549.263 678.331 497.586 687.059 452.908 693.949C391.993 703.247 331.721 709.715 270.193 716.064C224.525 720.752 184.865 724.671 148.947 728.043C145.223 728.388 141.502 728.735 137.786 729.08C76.1537 734.82 17.9395 740.241 -41.655 740.533C-49.9438 740.587 -58.534 740.514 -67.187 740.318C-101.786 739.534 -129.071 733.926 -153.054 722.671L-152.69 721.909C-128.818 733.112 -101.643 738.694 -67.1676 739.476C-58.5232 739.672 -49.9419 739.744 -41.6597 739.69C17.8981 739.398 76.0937 733.979 137.707 728.241C141.423 727.895 145.143 727.549 148.867 727.203C184.782 723.832 224.44 719.914 270.106 715.225C331.622 708.878 391.883 702.411 452.778 693.116C497.419 686.231 549.052 677.512 596.885 661.111C670.362 635.916 716.186 592.255 760.458 545.938C768.218 537.82 775.922 529.215 783.373 520.894C816.18 484.253 850.103 446.365 906.247 427.87C937.261 417.653 971.625 411.384 1008.38 409.236C1041.5 407.301 1077.78 408.649 1116.2 413.244C1150.14 417.303 1185.83 423.793 1225.29 433.084C1257.14 440.581 1291.81 450.026 1331.29 461.96C1429.94 491.387 1530.76 532.247 1630.96 583.405C1682.41 609.676 1734.29 638.76 1789.56 672.32C1865.19 718.102 1941.17 770.564 2028.67 837.419L2028.15 838.087Z" fill="#ffff"/>
<path d="M2035.9 813.652C1951.77 748.844 1873.94 695.465 1797.96 650.464C1743.09 617.856 1691.27 589.552 1639.56 563.937C1539.73 514.491 1439.16 475.252 1340.63 447.309C1203.89 407.954 1046.93 374.178 919.546 422.059C862.885 443.356 831.055 485.135 800.274 525.539C793.109 534.944 785.7 544.669 778.184 553.821C760.01 575.951 738.351 601.478 711.26 624.363C681.928 649.14 650.384 667.246 614.825 679.715C564.769 697.268 511.719 705.444 465.922 711.73C399.502 720.743 333.57 725.89 276.985 730.009C231.602 733.288 190.569 735.965 151.541 738.195C87.1656 741.803 20.599 745.535 -45.5445 743.122C-54.2118 742.819 -63.0674 742.381 -71.8649 741.821C-107.711 739.538 -135.617 732.649 -159.687 720.142L-159.284 719.381C-135.326 731.832 -107.531 738.689 -71.8095 740.964C-63.0209 741.524 -54.1735 741.961 -45.5131 742.264C20.5893 744.675 87.1361 740.945 151.491 737.338C190.514 735.109 231.543 732.432 276.921 729.153C333.493 725.036 399.409 719.89 465.804 710.881C511.557 704.6 564.556 696.432 614.535 678.906C692.045 651.726 737.548 601.942 777.512 553.279C785.018 544.139 792.422 534.42 799.583 525.021C830.438 484.52 862.344 442.641 919.239 421.256C949.401 409.919 983.13 402.614 1019.49 399.544C1052.18 396.784 1088.17 397.358 1126.48 401.248C1204.85 409.208 1282.22 429.604 1340.87 446.484C1439.45 474.441 1540.07 513.7 1639.94 563.169C1691.68 588.794 1743.51 617.108 1798.41 649.728C1874.42 694.746 1952.28 748.145 2036.43 812.973L2035.9 813.652Z" fill="#ffff"/>
<path d="M2043.64 789.215C1961.39 725.32 1883.92 672.55 1806.81 627.889C1753.05 596.646 1699.8 568.328 1648.54 543.719C1550.07 496.448 1449.7 458.811 1350.21 431.851C1212.68 394.581 1055.51 363.486 932.577 415.446C875.085 439.746 845.195 485.545 816.29 529.836C809.496 540.247 802.471 551.012 795.29 561.122C777.042 586.819 756.547 613.932 730.362 638.108C701.345 664.899 669.33 684.333 632.486 697.523C582.879 715.28 529.371 723.391 478.937 729.512C411.489 737.593 345.279 741.228 283.777 743.952C237.601 745.975 195.195 747.412 154.136 748.346C85.1545 749.844 17.6787 750.769 -49.4321 745.709C-58.498 745.039 -67.6194 744.236 -76.5412 743.322C-113.64 739.524 -142.167 731.354 -166.317 717.613L-165.878 716.854C-141.839 730.533 -113.423 738.667 -76.4506 742.452C-67.5369 743.365 -58.4244 744.167 -49.3659 744.837C17.7063 749.895 85.1576 748.969 154.116 747.472C195.169 746.538 237.569 745.101 283.738 743.079C345.222 740.355 411.412 736.722 478.831 728.643C529.213 722.53 582.662 714.428 632.187 696.7C713.54 667.577 757.013 613.506 794.57 560.618C801.739 550.522 808.76 539.764 815.549 529.361C844.526 484.959 874.49 439.046 932.231 414.641C961.556 402.246 994.657 393.954 1030.61 389.996C1062.86 386.446 1098.57 386.262 1136.76 389.449C1214.03 395.897 1291.55 415.046 1350.45 431.007C1449.98 457.981 1550.41 495.638 1648.93 542.932C1700.21 567.55 1753.48 595.88 1807.25 627.134C1884.4 671.814 1961.9 724.607 2044.18 788.527L2043.64 789.215Z" fill="#ffff"/>
<path d="M2051.38 764.779C1970.79 701.652 1893.69 649.491 1815.65 605.314C1762.23 574.964 1709.03 547.438 1657.53 523.502C1559.4 477.899 1459.23 441.862 1359.8 416.394C1222.08 381.12 1065.18 352.637 945.608 408.833C887.232 436.268 859.229 486.122 832.149 534.334C825.775 545.681 819.184 557.415 812.394 568.424C796.185 594.701 776.031 625.155 749.445 651.795C720.738 680.559 688.258 701.342 650.147 715.331C598.118 734.201 540.981 742.076 491.952 747.293C420.687 754.77 350.16 756.848 290.569 757.896C243.952 758.694 198.922 758.896 156.73 758.497C93.2158 757.834 19.3665 756.444 -53.3202 748.296C-62.8138 747.245 -72.2001 746.077 -81.218 744.824C-119.573 739.492 -148.721 730.042 -172.948 715.083L-172.473 714.327C-148.356 729.219 -119.319 738.629 -81.0937 743.943C-72.0843 745.194 -62.7061 746.362 -53.2202 747.412C19.4262 755.556 93.248 756.945 156.739 757.607C198.923 758.005 243.944 757.803 290.553 757.006C350.125 755.959 420.627 753.881 491.857 746.408C540.832 741.198 597.901 733.332 649.838 714.496C735.007 683.233 778.008 622.465 811.628 567.96C818.409 556.967 824.995 545.241 831.365 533.901C858.514 485.566 886.588 435.586 945.223 408.029C973.747 394.623 1006.24 385.361 1041.79 380.502C1073.63 376.15 1109.06 375.184 1147.1 377.63C1223.97 382.574 1301.27 400.483 1360.02 415.532C1459.51 441.014 1559.73 477.069 1657.91 522.696C1709.44 546.643 1762.66 574.18 1816.1 604.541C1894.17 648.74 1971.32 700.926 2051.93 764.082L2051.38 764.779Z" fill="#ffff"/>
<path d="M329.002 771.968C318.157 771.968 307.603 771.916 297.361 771.839C249.524 771.458 203.082 770.384 159.326 768.647C90.757 765.863 17.0673 761.784 -57.2078 750.882C-67.1585 749.435 -76.8106 747.901 -85.8943 746.324C-125.505 739.444 -155.273 728.714 -179.578 712.553L-179.069 711.8C-154.874 727.889 -125.217 738.576 -85.7363 745.432C-76.6607 747.008 -67.0175 748.54 -57.0745 749.986C17.1595 760.882 90.8197 764.959 159.363 767.743C203.109 769.479 249.541 770.552 297.368 770.934C358.165 771.391 430.363 770.946 504.882 764.171C555.168 759.53 613.811 752.114 667.488 732.291C756.187 699.164 797.206 633.886 828.689 575.3C835.049 563.465 841.172 550.838 847.094 538.626C872.451 486.331 898.671 432.256 958.215 401.416C985.968 387.041 1017.86 376.836 1053.01 371.085C1084.45 365.937 1119.61 364.186 1157.48 365.879C1234.06 369.301 1311.07 385.941 1369.6 400.056C1469.02 424.028 1569.04 458.481 1666.89 502.46C1718.65 525.72 1771.82 552.464 1824.94 581.949C1903.79 625.554 1980.58 677.133 2059.69 739.635L2059.12 740.343C1980.05 677.873 1903.3 626.32 1824.5 582.739C1771.4 553.266 1718.25 526.534 1666.52 503.285C1568.71 459.33 1468.74 424.895 1369.39 400.936C1231.63 367.719 1075.11 341.895 958.638 402.219C899.362 432.919 873.209 486.856 847.917 539.019C841.992 551.239 835.865 563.875 829.496 575.726C814.353 603.904 795.271 636.611 768.557 665.542C740.134 696.324 707.179 718.435 667.809 733.139C614.031 753 555.312 760.427 504.966 765.073C442.962 770.71 382.56 771.967 329.002 771.968Z" fill="#ffff"/>
<path d="M392.121 787.31C360.129 787.31 330.282 786.597 304.154 785.782C255.044 784.23 207.19 781.881 161.921 778.798C99.9655 774.524 18.6266 767.783 -61.0949 753.468C-71.6644 751.584 -81.306 749.737 -90.5703 747.824C-131.436 739.383 -161.826 727.372 -186.208 710.023L-185.667 709.275C-161.393 726.547 -131.116 738.509 -90.3808 746.922C-81.1251 748.834 -71.4916 750.679 -60.9303 752.562C18.7474 766.869 100.053 773.607 161.985 777.879C207.242 780.962 255.085 783.311 304.183 784.862C362.682 786.686 439.842 788.003 517.907 781.936C569.527 777.859 629.763 770.887 685.139 750.087C772.901 716.782 814.199 649.926 845.753 582.641C851.672 570.019 857.065 557.155 862.774 543.535C874.416 515.762 886.455 487.044 903.076 461.123C921.856 431.835 944.142 410.142 971.207 394.805C998.22 379.497 1029.53 368.37 1064.27 361.731C1095.34 355.795 1130.21 353.256 1167.91 354.183C1200.89 354.993 1235.98 358.331 1275.19 364.385C1306.27 369.185 1340.29 375.791 1379.18 384.581C1478.5 407.026 1578.32 439.878 1675.88 482.224C1727.84 504.782 1780.97 530.732 1833.79 559.357C1913.29 602.283 1989.72 653.256 2067.44 715.19L2066.86 715.908C1989.18 654.009 1912.8 603.065 1833.34 560.165C1780.55 531.553 1727.44 505.614 1675.5 483.068C1578 440.744 1478.23 407.911 1378.97 385.479C1249.35 356.185 1085.91 330.863 971.667 395.604C911.499 429.701 887.164 487.751 863.631 543.889C857.918 557.518 852.522 570.391 846.595 583.029C832.484 613.12 814.448 648.087 787.671 679.291C759.523 712.092 726.092 735.531 685.469 750.947C629.983 771.789 569.666 778.773 517.98 782.855C474.744 786.213 431.784 787.31 392.121 787.31Z" fill="#ffff"/>
<path d="M436.811 803.522C390.365 803.522 347.14 801.66 310.946 799.725C260.501 797.007 211.235 793.381 164.517 788.948C71.5785 780.053 0.798187 769.908 -64.9819 756.054C-76.0566 753.734 -85.9566 751.533 -95.2456 749.324C-114.875 744.657 -131.593 739.463 -146.354 733.448C-164.144 726.198 -179.349 717.707 -192.838 707.492L-192.264 706.748C-167.577 725.443 -137.588 738.293 -95.0256 748.413C-85.745 750.619 -75.8536 752.819 -64.7863 755.137C0.957794 768.985 71.7056 779.124 164.607 788.015C211.312 792.448 260.564 796.073 310.997 798.79C370.833 801.991 449.908 804.987 530.932 799.699C583.904 796.182 645.746 789.649 702.789 767.881C793.77 732.837 833.469 661.667 862.817 589.979C868.284 576.625 873.213 563.024 878.433 548.624C889.21 518.89 900.353 488.144 916.418 460.229C934.574 428.677 956.746 405.114 984.198 388.193C1010.5 371.981 1041.25 359.947 1075.6 352.427C1105.62 345.854 1139.36 342.524 1175.93 342.524C1176.75 342.524 1177.56 342.525 1178.38 342.529C1255.38 342.841 1335.32 357.845 1388.76 369.104C1487.96 390.007 1587.58 421.257 1684.86 461.987C1737.02 483.829 1790.1 508.987 1842.63 536.763C1922.69 578.939 1998.76 629.307 2075.19 690.743L2074.6 691.471C1998.21 630.073 1922.19 579.738 1842.19 537.589C1789.68 509.827 1736.63 484.681 1684.49 462.85C1587.27 422.143 1487.7 390.91 1388.56 370.02C1259.11 342.745 1096.22 320.251 984.698 388.988C923.661 426.609 901.12 488.798 879.321 548.94C874.099 563.35 869.166 576.959 863.692 590.331C851.354 620.47 833.736 659.38 806.789 693.037C778.907 727.86 745 752.627 703.129 768.755C645.968 790.569 584.037 797.111 530.995 800.635C498.939 802.726 467.185 803.522 436.811 803.522Z" fill="#ffff"/>
<path d="M473.303 820.251C427.329 820.252 377.043 818.09 317.738 813.667C265.95 809.788 215.272 804.886 167.113 799.097C74.384 787.884 -0.600739 775.028 -68.868 758.639C-80.4532 755.87 -90.6104 753.313 -99.9204 750.823C-143.885 739.065 -174.586 724.921 -199.466 704.962L-198.862 704.222C-174.091 724.092 -143.499 738.181 -99.6701 749.904C-90.3687 752.392 -80.2192 754.946 -68.6421 757.714C-0.411301 774.094 74.5382 786.944 167.229 798.152C215.374 803.939 266.037 808.84 317.811 812.719C408.754 819.5 478.5 820.964 543.958 817.464C598.293 814.502 661.752 808.408 720.44 785.676C814.595 748.904 852.715 673.416 879.884 597.318C884.894 583.286 889.361 569.011 894.091 553.897C904.015 522.187 914.278 489.398 929.786 459.462C947.321 425.617 969.369 400.142 997.191 381.582C1022.82 364.487 1053.03 351.561 1086.97 343.164C1117.3 335.663 1151.59 331.54 1188.91 330.91C1265.7 329.613 1345.21 343.255 1398.33 353.628C1497.4 372.971 1596.82 402.62 1693.84 441.75C1746.18 462.861 1799.22 487.227 1851.47 514.17C1932.01 555.544 2007.73 605.305 2082.95 666.298L2082.34 667.035C2007.17 606.084 1931.51 556.359 1851.03 515.015C1798.8 488.085 1745.79 463.732 1693.48 442.632C1596.51 403.525 1497.15 373.894 1398.15 354.562C1268.95 329.334 1106.67 309.696 997.727 382.372C935.864 423.641 915.095 490.002 895.01 554.179C890.276 569.301 885.806 583.586 880.79 597.635C869.383 629.584 852.837 670.864 825.911 706.781C798.289 743.628 763.904 769.724 720.791 786.561C694.818 796.622 666.262 804.102 633.491 809.428C607.552 813.645 579.119 816.5 544.011 818.414C521.202 819.634 497.864 820.251 473.303 820.251Z" fill="#ffff"/>
<path d="M503.967 837.3C451.227 837.3 393.811 834.158 324.532 827.61C271.367 822.568 219.278 816.39 169.71 809.246C75.8021 795.653 -1.24284 780.393 -72.753 761.224C-85.0316 757.944 -95.1497 755.115 -104.594 752.322C-135.043 743.317 -174.096 729.509 -206.094 702.431L-205.46 701.695C-173.602 728.655 -134.672 742.417 -104.315 751.394C-94.879 754.185 -84.769 757.012 -72.4985 760.289C-1.02589 779.448 75.9819 794.7 169.851 808.288C219.402 815.43 271.476 821.607 324.625 826.646C417.685 835.443 489.345 838.089 556.983 835.228C609.436 832.959 677.424 827.3 738.09 803.471C835.639 764.877 873.136 681.311 896.951 604.655C901.503 590.003 905.514 575.118 909.761 559.359C918.844 525.657 928.236 490.807 943.19 458.823C960.102 422.653 982.016 395.224 1010.18 374.972C1035.17 357.005 1064.86 343.184 1098.41 333.892C1128.39 325.59 1162.41 320.653 1199.5 319.219C1258.12 316.954 1324.34 322.97 1407.91 338.152C1505.86 355.556 1605.09 383.602 1702.82 421.513C1755.33 441.883 1808.32 465.455 1860.32 491.576C1941.27 532.103 2016.63 581.258 2090.7 641.852L2090.08 642.598C2016.07 582.051 1940.77 532.934 1859.88 492.439C1807.91 466.332 1754.95 442.772 1702.47 422.414C1604.79 384.526 1505.63 356.497 1407.74 339.104C1289.16 317.562 1119.01 297.924 1010.76 375.755C948.115 420.795 929.097 491.363 910.705 559.608C906.455 575.376 902.442 590.27 897.884 604.939C887.395 638.703 871.908 682.355 845.033 720.525C817.666 759.397 782.803 786.822 738.451 804.37C711.839 814.822 682.554 822.472 648.92 827.757C622.186 831.958 592.985 834.639 557.025 836.194C539.704 836.927 522.106 837.299 503.967 837.3Z" fill="#ffff"/>
<path d="M531.71 854.578C472.901 854.579 409.386 850.407 331.326 841.552C276.77 835.349 223.269 827.895 172.307 819.395C78.41 803.684 -3.02107 785.502 -76.6375 763.809C-86.3926 760.942 -97.898 757.513 -109.268 753.821C-155.587 738.971 -187.493 722.341 -212.721 699.901L-212.058 699.169C-186.939 721.513 -155.143 738.08 -108.962 752.886C-97.6013 756.575 -86.104 760.001 -76.3555 762.866C-2.77699 784.547 78.615 802.722 172.472 818.425C223.416 826.922 276.9 834.374 331.439 840.575C426.661 851.377 500.239 855.207 570.009 852.992C623.764 851.243 693.455 846.056 755.742 821.266C856.403 780.955 892.24 692.856 914.02 611.991C918.118 596.781 921.682 581.352 925.456 565.017C933.707 529.303 942.239 492.373 956.637 458.312C972.924 419.783 994.689 390.36 1023.18 368.363C1047.55 349.539 1076.73 334.842 1109.9 324.679C1139.53 315.601 1173.25 309.871 1210.12 307.648C1268.5 304.127 1334.4 308.902 1417.49 322.677C1515.33 338.536 1614.35 364.981 1711.8 401.277C1764.47 420.895 1817.42 443.674 1869.16 468.983C1950.48 508.625 2025.48 557.175 2098.45 617.406L2097.82 618.162C2024.91 557.981 1949.97 509.473 1868.72 469.865C1817.01 444.571 1764.09 421.804 1711.45 402.198C1614.07 365.924 1515.11 339.496 1417.33 323.647C1299.06 304.042 1129.6 287.428 1023.79 369.139C960.423 418.066 943.138 492.883 926.422 565.236C922.646 581.58 919.08 597.017 914.978 612.245C900.743 665.097 885.069 702.73 864.158 734.269C837.041 775.168 801.699 803.923 756.112 822.178C693.68 847.025 623.877 852.223 570.04 853.976C557.427 854.376 544.677 854.578 531.71 854.578Z" fill="#ffff"/>
<path d="M558.497 872.019C494.11 872.019 423.307 866.687 338.12 855.494C282.179 848.131 227.266 839.401 174.905 829.543C79.633 811.565 -3.91791 790.908 -80.522 766.393C-91.1154 763.01 -102.496 759.328 -113.941 755.32C-145.986 744.211 -186.929 727.586 -219.347 697.371L-218.657 696.643C-186.376 726.729 -145.559 743.301 -113.607 754.377C-102.171 758.381 -90.7993 762.062 -80.2121 765.442C-3.64752 789.944 79.8639 810.591 175.094 828.562C227.436 838.415 282.331 847.144 338.253 854.504C434.35 867.13 512.131 872.295 583.034 870.756C638.098 869.524 709.497 864.808 773.394 839.06C877.144 797.038 911.332 704.402 931.091 619.327C934.738 603.621 937.868 587.717 941.182 570.88C948.61 533.132 956.291 494.099 970.132 457.928C985.79 417.006 1007.39 385.547 1036.17 361.753C1059.97 342.08 1088.66 326.51 1121.44 315.477C1150.72 305.625 1184.14 299.1 1220.79 296.085C1278.9 291.303 1344.45 294.835 1427.06 307.2C1524.79 321.506 1623.61 346.35 1720.79 381.039C1773.6 399.894 1826.5 421.881 1878.01 446.389C1959.65 485.116 2034.29 533.06 2106.21 592.96L2105.56 593.725C2033.71 533.879 1959.13 485.98 1877.57 447.289C1826.09 422.796 1773.23 400.823 1720.44 381.979C1623.33 347.312 1524.58 322.484 1426.92 308.188C1380.92 301.304 1327.18 295.039 1272.61 295.039C1187.29 295.039 1099.93 310.342 1036.82 362.52C972.796 415.451 957.227 494.564 942.17 571.071C938.855 587.918 935.724 603.829 932.073 619.551C926.162 645 919.875 666.775 912.852 686.119C904.326 709.602 894.655 729.847 883.286 748.009C856.415 790.936 820.593 821.022 773.774 839.985C709.724 865.795 638.206 870.521 583.057 871.754C574.966 871.93 566.783 872.019 558.497 872.019Z" fill="#ffff"/>
<path d="M582.695 889.616C513.303 889.617 437.293 883.149 344.914 869.435C287.569 860.913 231.244 850.905 177.503 839.692C80.7745 819.474 -4.89668 796.343 -84.4063 768.978C-95.3499 765.216 -107.068 761.141 -118.614 756.818C-151.521 744.592 -193.463 726.498 -225.975 694.84L-225.258 694.116C-192.883 725.641 -151.067 743.677 -118.254 755.869C-106.719 760.186 -95.0083 764.26 -84.0716 768.019C-4.60266 795.371 81.0278 818.49 177.714 838.699C231.435 849.908 287.74 859.911 345.065 868.432C443.355 883.024 523.111 889.41 596.058 888.52C652.435 887.805 725.546 883.559 791.043 856.855C897.861 813.125 930.409 715.951 948.16 626.661C951.367 610.529 954.076 594.223 956.943 576.961C963.557 537.153 970.396 495.99 983.674 457.675C998.699 414.321 1020.12 380.783 1049.16 355.144C1072.41 334.623 1100.63 318.181 1133.04 306.278C1161.97 295.652 1195.1 288.333 1231.5 284.525C1262.97 281.233 1298.01 280.459 1335.66 282.222C1366.49 283.665 1399.52 286.773 1436.64 291.724C1534.24 304.468 1632.86 327.709 1729.76 360.802C1782.72 378.886 1835.57 400.08 1886.85 423.795C1968.77 461.581 2043.06 508.919 2113.96 568.514L2113.3 569.288C2042.47 509.752 1968.25 462.462 1886.42 424.715C1835.17 401.014 1782.35 379.834 1729.43 361.762C1632.59 328.691 1534.04 305.466 1436.5 292.73C1318.99 277.056 1151.05 266.552 1049.84 355.902C985.228 412.947 971.362 496.411 957.953 577.125C955.083 594.396 952.373 610.709 949.163 626.858C943.857 653.546 938.005 676.431 931.273 696.819C923.139 721.455 913.698 742.692 902.411 761.748C889.81 783.024 874.695 801.604 857.485 816.973C838.583 833.854 816.359 847.588 791.432 857.793C725.774 884.563 652.538 888.818 596.07 889.535C591.643 889.589 587.176 889.616 582.695 889.616Z" fill="#ffff"/>
<path d="M605.794 907.32C531.654 907.32 450.798 899.696 351.708 883.377C292.954 873.694 235.217 862.41 180.101 849.84C81.8385 827.405 -5.95299 801.8 -88.2902 771.561C-101.338 766.775 -112.283 762.691 -123.287 758.317C-157.053 744.966 -199.993 725.398 -232.601 692.31L-231.857 691.59C-199.386 724.54 -156.572 744.047 -122.901 757.36C-111.907 761.73 -100.969 765.812 -87.9296 770.596C-5.63377 800.818 82.1154 826.41 180.334 848.836C235.429 861.401 293.145 872.681 351.879 882.361C452.376 898.912 534.112 906.519 609.084 906.285C666.779 906.085 741.608 902.308 808.694 874.651C918.563 829.217 949.479 727.502 965.231 633.996C968.008 617.509 970.312 600.879 972.752 583.272C978.556 541.375 984.559 498.052 997.273 457.557C1004.14 435.668 1012.3 416.643 1022.21 399.396C1033.4 379.933 1046.46 363.297 1062.16 348.537C1084.88 327.166 1112.65 309.852 1144.69 297.077C1173.28 285.677 1206.11 277.565 1242.27 272.964C1273.51 268.988 1308.35 267.507 1345.8 268.56C1376.48 269.423 1409.33 271.938 1446.21 276.248C1543.69 287.423 1642.11 309.062 1738.75 340.566C1791.82 357.868 1844.62 378.268 1895.69 401.202C1977.86 438.024 2051.8 484.756 2121.71 544.069L2121.04 544.852C2051.2 485.603 1977.34 438.922 1895.26 402.141C1844.23 379.222 1791.46 358.835 1738.42 341.545C1641.85 310.063 1543.5 288.438 1446.09 277.272C1329 263.587 1161.88 256.164 1062.87 349.284C997.731 410.552 985.556 498.428 973.782 583.412C971.341 601.027 969.036 617.665 966.256 634.166C956.127 694.292 941.918 739.198 921.54 775.487C909.051 797.727 893.879 817.132 876.442 833.162C857.305 850.757 834.645 865.035 809.094 875.602C779.94 887.621 747.736 895.953 710.641 901.074C680.782 905.195 648.512 907.178 609.087 907.315C607.992 907.319 606.891 907.32 605.794 907.32Z" fill="#ffff"/>
<path d="M628.437 925.112C626.344 925.112 624.235 925.106 622.102 925.095C545.05 924.663 461.29 915.837 358.502 897.318C298.34 886.475 239.192 873.915 182.699 859.988C84.2261 835.695 -8.25441 806.814 -92.1738 774.146C-103.009 769.93 -115.604 765 -127.959 759.815C-151.88 749.811 -170.786 740.489 -187.457 730.478C-208.063 718.105 -224.997 704.792 -239.227 689.779L-238.458 689.064C-205.883 723.43 -162.075 744.413 -127.548 758.852C-115.204 764.032 -102.617 768.96 -91.7879 773.172C-7.91077 805.824 84.526 834.692 182.954 858.974C239.425 872.894 298.551 885.45 358.691 896.289C461.417 914.797 545.12 923.618 622.109 924.05C681.132 924.365 757.676 921.056 826.345 892.446C939.498 845.206 968.68 738.997 982.303 641.331C984.716 624.362 986.666 607.272 988.731 589.178C993.742 545.267 998.924 499.862 1011.05 457.264C1017.61 434.238 1025.55 414.178 1035.33 395.94C1046.36 375.358 1059.39 357.691 1075.15 341.93C1097.38 319.704 1124.71 301.515 1156.38 287.868C1184.64 275.694 1217.17 266.788 1253.07 261.395C1284.09 256.738 1318.7 254.552 1355.95 254.896C1386.47 255.179 1419.12 257.102 1455.79 260.774C1553.12 270.369 1651.34 290.407 1747.73 320.33C1800.91 336.842 1853.67 356.45 1904.54 378.61C1986.93 414.451 2060.51 460.577 2129.47 519.625L2128.78 520.417C2059.9 461.438 1986.41 415.366 1904.11 379.568C1853.28 357.424 1800.56 337.829 1747.41 321.329C1651.1 291.426 1552.94 271.403 1455.68 261.815C1422.67 258.509 1385.66 255.79 1347.4 255.79C1250.47 255.79 1145.36 273.217 1075.9 342.666C1010.46 408.098 999.947 500.214 989.779 589.297C987.713 607.397 985.762 624.494 983.348 641.476C974.601 704.186 961.056 751.137 940.72 789.233C928.337 812.43 913.095 832.658 895.417 849.353C876.035 867.659 852.933 882.482 826.755 893.41C796.968 905.821 764.035 914.323 726.072 919.403C697.063 923.284 665.892 925.112 628.437 925.112Z" fill="#ffff"/>
<path d="M650.534 942.984C645.508 942.984 640.374 942.947 635.118 942.875C556.066 941.778 470.328 931.733 365.297 911.26C303.721 899.256 243.161 885.419 185.298 870.137C85.1921 843.688 -9.4687 812.262 -96.0569 776.73C-107.737 771.938 -120.182 766.801 -132.63 761.314C-157.148 750.523 -176.434 740.589 -193.325 730.05C-214.336 716.939 -231.518 702.94 -245.852 687.249L-245.058 686.537C-212.565 722.104 -169.771 743.806 -132.195 760.344C-119.758 765.827 -107.321 770.961 -95.647 775.749C-9.103 811.264 85.5136 842.675 185.574 869.112C243.414 884.388 303.951 898.219 365.504 910.219C470.471 930.679 556.147 940.719 635.133 941.814C695.477 942.642 773.748 939.803 843.996 910.241C960.725 861.069 988.35 744.62 999.374 648.663C1001.36 631.599 1002.92 614.451 1004.58 596.295C1008.78 550.176 1013.13 502.485 1024.69 457.568C1030.94 433.287 1038.68 412.09 1048.34 392.765C1059.25 370.955 1072.27 352.165 1088.15 335.321C1109.91 312.234 1136.82 293.165 1168.13 278.645C1196.05 265.696 1228.28 255.996 1263.92 249.813C1294.69 244.475 1329.08 241.586 1366.12 241.225C1396.44 240.93 1428.9 242.262 1465.36 245.297C1562.55 253.306 1660.57 271.742 1756.71 300.092C1810 315.807 1862.71 334.622 1913.38 356.014C1995.97 390.856 2069.19 436.377 2137.22 495.178L2136.52 495.978C2068.58 437.251 1995.45 391.788 1912.96 356.991C1862.33 335.614 1809.65 316.813 1756.4 301.11C1660.34 272.78 1562.39 254.357 1465.28 246.355C1349.12 236.686 1183.74 235.464 1088.93 336.045C1023.01 405.981 1014.18 502.779 1005.64 596.39C1003.99 614.552 1002.42 631.707 1000.44 648.783C992.924 714.194 980.018 763.187 959.824 802.962C947.556 827.128 932.261 848.18 914.364 865.536C894.75 884.558 871.216 899.927 844.416 911.216C813.997 924.018 780.333 932.69 741.502 937.73C714.11 941.286 684.887 942.984 650.534 942.984Z" fill="#ffff"/>
<path d="M670.804 960.908C663.443 960.908 655.895 960.824 648.134 960.655C567.092 958.891 479.378 947.625 372.092 925.202C200.349 889.306 41.5339 840.223 -99.9395 779.314C-129.629 766.531 -156.274 754.769 -181.693 740.244C-211.274 723.34 -234.428 705.178 -252.478 684.719L-251.659 684.01C-210.676 730.464 -151.615 755.892 -99.5064 778.326C41.8996 839.206 200.644 888.267 372.316 924.147C479.535 946.557 567.185 957.815 648.157 959.577C709.827 960.919 789.825 958.548 861.647 928.035C981.283 877.209 1007.22 755.953 1016.45 655.995C1018.02 638.937 1019.22 621.831 1020.49 603.72C1023.89 555.346 1027.41 505.324 1038.39 458.035C1044.32 432.471 1051.85 410.11 1061.39 389.673C1072.16 366.606 1085.17 346.665 1101.14 328.713C1122.46 304.755 1148.96 284.801 1179.92 269.404C1207.51 255.68 1239.43 245.187 1274.81 238.217C1305.33 232.202 1339.47 228.614 1376.3 227.551C1406.4 226.682 1438.67 227.424 1474.94 229.822C1550.52 234.819 1627.17 246.243 1702.76 263.778C1778.04 281.241 1851.88 304.672 1922.22 333.421C2005 367.251 2077.86 412.166 2144.98 470.733L2144.26 471.541C2077.23 413.054 2004.47 368.2 1921.81 334.417C1780.54 276.683 1625.99 240.887 1474.87 230.896C1359.22 223.251 1194.75 225.148 1101.96 329.426C1035.62 403.978 1028.48 505.559 1021.58 603.795C1020.31 621.912 1019.1 639.023 1017.53 656.093C1011.24 724.207 998.974 775.239 978.926 816.694C966.771 841.828 951.424 863.706 933.31 881.722C913.464 901.46 889.496 917.375 862.076 929.025C831.024 942.217 796.632 951.06 756.932 956.059C731.143 959.307 702.793 960.908 670.804 960.908Z" fill="#ffff"/>
</g>
</svg>
